<svg width="72" height="56" viewBox="0 0 72 56" fill="none" xmlns="http://www.w3.org/2000/svg">
<path d="M18.1333 39.596L17.7613 40.796H20.1253L19.7533 39.596C19.6093 39.156 19.4733 38.72 19.3453 38.288C19.2173 37.848 19.0893 37.4 18.9613 36.944H18.9133C18.7933 37.4 18.6693 37.848 18.5413 38.288C18.4133 38.72 18.2773 39.156 18.1333 39.596ZM15.7333 44L18.3973 36.128H19.5253L22.1893 44H21.1213L20.3773 41.6H17.5093L16.7533 44H15.7333ZM25.5126 44.144C25.1286 44.144 24.7686 44.076 24.4326 43.94C24.0966 43.804 23.8046 43.608 23.5566 43.352C23.3166 43.088 23.1246 42.768 22.9806 42.392C22.8446 42.008 22.7766 41.576 22.7766 41.096C22.7766 40.608 22.8526 40.176 23.0046 39.8C23.1566 39.416 23.3606 39.092 23.6166 38.828C23.8726 38.564 24.1686 38.364 24.5046 38.228C24.8486 38.092 25.2086 38.024 25.5846 38.024C25.9686 38.024 26.2966 38.092 26.5686 38.228C26.8406 38.364 27.0806 38.524 27.2886 38.708L26.7846 39.356C26.6166 39.204 26.4366 39.08 26.2446 38.984C26.0606 38.888 25.8526 38.84 25.6206 38.84C25.3566 38.84 25.1126 38.896 24.8886 39.008C24.6646 39.112 24.4726 39.264 24.3126 39.464C24.1526 39.664 24.0246 39.904 23.9286 40.184C23.8406 40.456 23.7966 40.76 23.7966 41.096C23.7966 41.432 23.8406 41.736 23.9286 42.008C24.0166 42.28 24.1366 42.516 24.2886 42.716C24.4486 42.908 24.6406 43.06 24.8646 43.172C25.0886 43.276 25.3326 43.328 25.5966 43.328C25.8686 43.328 26.1166 43.272 26.3406 43.16C26.5726 43.04 26.7806 42.9 26.9646 42.74L27.3966 43.4C27.1326 43.632 26.8406 43.816 26.5206 43.952C26.2006 44.08 25.8646 44.144 25.5126 44.144ZM30.7275 44.144C30.3435 44.144 29.9835 44.076 29.6475 43.94C29.3115 43.804 29.0195 43.608 28.7715 43.352C28.5315 43.088 28.3395 42.768 28.1955 42.392C28.0595 42.008 27.9915 41.576 27.9915 41.096C27.9915 40.608 28.0675 40.176 28.2195 39.8C28.3715 39.416 28.5755 39.092 28.8315 38.828C29.0875 38.564 29.3835 38.364 29.7195 38.228C30.0635 38.092 30.4235 38.024 30.7995 38.024C31.1835 38.024 31.5115 38.092 31.7835 38.228C32.0555 38.364 32.2955 38.524 32.5035 38.708L31.9995 39.356C31.8315 39.204 31.6515 39.08 31.4595 38.984C31.2755 38.888 31.0675 38.84 30.8355 38.84C30.5715 38.84 30.3275 38.896 30.1035 39.008C29.8795 39.112 29.6875 39.264 29.5275 39.464C29.3675 39.664 29.2395 39.904 29.1435 40.184C29.0555 40.456 29.0115 40.76 29.0115 41.096C29.0115 41.432 29.0555 41.736 29.1435 42.008C29.2315 42.28 29.3515 42.516 29.5035 42.716C29.6635 42.908 29.8555 43.06 30.0795 43.172C30.3035 43.276 30.5475 43.328 30.8115 43.328C31.0835 43.328 31.3315 43.272 31.5555 43.16C31.7875 43.04 31.9955 42.9 32.1795 42.74L32.6115 43.4C32.3475 43.632 32.0555 43.816 31.7355 43.952C31.4155 44.08 31.0795 44.144 30.7275 44.144ZM35.9063 44.144C35.5463 44.144 35.2023 44.076 34.8743 43.94C34.5543 43.804 34.2703 43.608 34.0223 43.352C33.7743 43.088 33.5743 42.768 33.4223 42.392C33.2783 42.008 33.2063 41.576 33.2063 41.096C33.2063 40.608 33.2783 40.176 33.4223 39.8C33.5743 39.416 33.7743 39.092 34.0223 38.828C34.2703 38.564 34.5543 38.364 34.8743 38.228C35.2023 38.092 35.5463 38.024 35.9063 38.024C36.2663 38.024 36.6063 38.092 36.9263 38.228C37.2543 38.364 37.5423 38.564 37.7903 38.828C38.0383 39.092 38.2343 39.416 38.3783 39.8C38.5303 40.176 38.6063 40.608 38.6063 41.096C38.6063 41.576 38.5303 42.008 38.3783 42.392C38.2343 42.768 38.0383 43.088 37.7903 43.352C37.5423 43.608 37.2543 43.804 36.9263 43.94C36.6063 44.076 36.2663 44.144 35.9063 44.144ZM35.9063 43.328C36.1543 43.328 36.3823 43.276 36.5903 43.172C36.7983 43.06 36.9743 42.908 37.1183 42.716C37.2703 42.516 37.3863 42.28 37.4663 42.008C37.5463 41.736 37.5863 41.432 37.5863 41.096C37.5863 40.76 37.5463 40.456 37.4663 40.184C37.3863 39.904 37.2703 39.664 37.1183 39.464C36.9743 39.264 36.7983 39.112 36.5903 39.008C36.3823 38.896 36.1543 38.84 35.9063 38.84C35.6583 38.84 35.4303 38.896 35.2223 39.008C35.0143 39.112 34.8343 39.264 34.6823 39.464C34.5383 39.664 34.4263 39.904 34.3463 40.184C34.2663 40.456 34.2263 40.76 34.2263 41.096C34.2263 41.432 34.2663 41.736 34.3463 42.008C34.4263 42.28 34.5383 42.516 34.6823 42.716C34.8343 42.908 35.0143 43.06 35.2223 43.172C35.4303 43.276 35.6583 43.328 35.9063 43.328ZM41.8462 44.144C41.2222 44.144 40.7662 43.952 40.4782 43.568C40.1982 43.184 40.0582 42.616 40.0582 41.864V38.168H41.0542V41.732C41.0542 42.284 41.1382 42.684 41.3062 42.932C41.4822 43.172 41.7622 43.292 42.1462 43.292C42.4502 43.292 42.7182 43.216 42.9502 43.064C43.1822 42.904 43.4382 42.652 43.7182 42.308V38.168H44.7022V44H43.8862L43.8022 43.088H43.7662C43.4942 43.408 43.2062 43.664 42.9022 43.856C42.6062 44.048 42.2542 44.144 41.8462 44.144ZM46.6695 44V38.168H47.4855L47.5695 39.008H47.6055C47.8855 38.728 48.1775 38.496 48.4815 38.312C48.7935 38.12 49.1535 38.024 49.5615 38.024C50.1775 38.024 50.6255 38.216 50.9055 38.6C51.1935 38.984 51.3375 39.552 51.3375 40.304V44H50.3535V40.436C50.3535 39.884 50.2655 39.488 50.0895 39.248C49.9135 39 49.6335 38.876 49.2495 38.876C48.9455 38.876 48.6775 38.952 48.4455 39.104C48.2135 39.256 47.9495 39.48 47.6535 39.776V44H46.6695ZM55.068 44.144C54.756 44.144 54.492 44.096 54.276 44C54.068 43.904 53.896 43.772 53.76 43.604C53.632 43.436 53.54 43.232 53.484 42.992C53.428 42.752 53.4 42.488 53.4 42.2V38.972H52.536V38.228L53.448 38.168L53.568 36.536H54.396V38.168H55.968V38.972H54.396V42.212C54.396 42.572 54.46 42.852 54.588 43.052C54.724 43.244 54.96 43.34 55.296 43.34C55.4 43.34 55.512 43.324 55.632 43.292C55.752 43.26 55.86 43.224 55.956 43.184L56.148 43.928C55.988 43.984 55.812 44.032 55.62 44.072C55.436 44.12 55.252 44.144 55.068 44.144Z" fill="#732CA4"/>
<path d="M44.6748 29.2566C44.6285 26.2938 43.7054 23.5997 42.0643 21.6491C40.4327 19.7105 38.2215 18.6428 35.8373 18.6428C33.4531 18.6428 31.2419 19.7105 29.6103 21.6491C27.9707 23.5976 27.0482 26.288 27 29.2472C27.9271 29.7116 31.7637 31.5 35.8373 31.5C40.2423 31.5 43.815 29.7221 44.6748 29.2566V29.2566Z" fill="#732CA4"/>
<path d="M35.8376 17.8393C38.2785 17.8393 40.2573 15.8605 40.2573 13.4196C40.2573 10.9787 38.2785 9 35.8376 9C33.3967 9 31.418 10.9787 31.418 13.4196C31.418 15.8605 33.3967 17.8393 35.8376 17.8393Z" fill="#732CA4"/>
</svg>
