<svg width="72" height="56" viewBox="0 0 72 56" fill="none" xmlns="http://www.w3.org/2000/svg">
<path d="M17.7558 44V36.128H22.2918V36.968H18.7518V39.44H21.7398V40.292H18.7518V43.148H22.4118V44H17.7558ZM23.9879 44V38.168H24.8039L24.8879 39.224H24.9239C25.1239 38.856 25.3639 38.564 25.6439 38.348C25.9319 38.132 26.2439 38.024 26.5799 38.024C26.8119 38.024 27.0199 38.064 27.2039 38.144L27.0119 39.008C26.9159 38.976 26.8279 38.952 26.7479 38.936C26.6679 38.92 26.5679 38.912 26.4479 38.912C26.1999 38.912 25.9399 39.012 25.6679 39.212C25.4039 39.412 25.1719 39.76 24.9719 40.256V44H23.9879ZM28.1481 44V38.168H28.9641L29.0481 39.224H29.0841C29.2841 38.856 29.5241 38.564 29.8041 38.348C30.0921 38.132 30.4041 38.024 30.7401 38.024C30.9721 38.024 31.1801 38.064 31.3641 38.144L31.1721 39.008C31.0761 38.976 30.9881 38.952 30.9081 38.936C30.8281 38.92 30.7281 38.912 30.6081 38.912C30.3601 38.912 30.1001 39.012 29.8281 39.212C29.5641 39.412 29.3321 39.76 29.1321 40.256V44H28.1481ZM33.3593 44.144C32.8713 44.144 32.4633 44 32.1353 43.712C31.8153 43.424 31.6553 43.016 31.6553 42.488C31.6553 41.848 31.9393 41.36 32.5073 41.024C33.0753 40.68 33.9833 40.44 35.2313 40.304C35.2313 40.12 35.2113 39.94 35.1713 39.764C35.1393 39.588 35.0793 39.432 34.9913 39.296C34.9033 39.16 34.7793 39.052 34.6193 38.972C34.4673 38.884 34.2713 38.84 34.0312 38.84C33.6953 38.84 33.3793 38.904 33.0833 39.032C32.7873 39.16 32.5233 39.304 32.2913 39.464L31.9073 38.78C32.1793 38.604 32.5113 38.436 32.9033 38.276C33.2953 38.108 33.7273 38.024 34.1992 38.024C34.9113 38.024 35.4273 38.244 35.7473 38.684C36.0673 39.116 36.2273 39.696 36.2273 40.424V44H35.4113L35.3273 43.304H35.2913C35.0113 43.536 34.7113 43.736 34.3913 43.904C34.0713 44.064 33.7273 44.144 33.3593 44.144ZM33.6473 43.352C33.9273 43.352 34.1913 43.288 34.4393 43.16C34.6873 43.024 34.9513 42.828 35.2313 42.572V40.952C34.7433 41.016 34.3313 41.092 33.9953 41.18C33.6673 41.268 33.3993 41.372 33.1913 41.492C32.9913 41.612 32.8433 41.752 32.7473 41.912C32.6593 42.064 32.6152 42.232 32.6152 42.416C32.6152 42.752 32.7153 42.992 32.9153 43.136C33.1153 43.28 33.3593 43.352 33.6473 43.352ZM38.0621 44V38.168H38.8781L38.9621 39.008H38.9981C39.2781 38.728 39.5701 38.496 39.8741 38.312C40.1861 38.12 40.5461 38.024 40.9541 38.024C41.5701 38.024 42.0181 38.216 42.2981 38.6C42.5861 38.984 42.7301 39.552 42.7301 40.304V44H41.7461V40.436C41.7461 39.884 41.6581 39.488 41.4821 39.248C41.3061 39 41.0261 38.876 40.6421 38.876C40.3381 38.876 40.0701 38.952 39.8381 39.104C39.6061 39.256 39.3421 39.48 39.0461 39.776V44H38.0621ZM46.6166 44.144C45.8806 44.144 45.2926 43.88 44.8526 43.352C44.4206 42.824 44.2046 42.072 44.2046 41.096C44.2046 40.624 44.2726 40.2 44.4086 39.824C44.5526 39.44 44.7406 39.116 44.9726 38.852C45.2046 38.588 45.4726 38.384 45.7766 38.24C46.0806 38.096 46.4006 38.024 46.7366 38.024C47.0726 38.024 47.3646 38.084 47.6126 38.204C47.8606 38.324 48.1126 38.488 48.3686 38.696L48.3206 37.7V35.456H49.3166V44H48.5006L48.4166 43.316H48.3806C48.1486 43.54 47.8806 43.736 47.5766 43.904C47.2806 44.064 46.9606 44.144 46.6166 44.144ZM46.8326 43.316C47.1046 43.316 47.3606 43.252 47.6006 43.124C47.8406 42.988 48.0806 42.784 48.3206 42.512V39.464C48.0726 39.24 47.8326 39.084 47.6006 38.996C47.3766 38.9 47.1446 38.852 46.9046 38.852C46.6726 38.852 46.4526 38.908 46.2446 39.02C46.0446 39.124 45.8686 39.276 45.7166 39.476C45.5646 39.668 45.4446 39.9 45.3566 40.172C45.2686 40.444 45.2246 40.748 45.2246 41.084C45.2246 41.788 45.3646 42.336 45.6446 42.728C45.9246 43.12 46.3206 43.316 46.8326 43.316ZM52.8049 44.144C52.3889 44.144 51.9929 44.068 51.6169 43.916C51.2409 43.764 50.9129 43.572 50.6329 43.34L51.1249 42.68C51.3809 42.888 51.6409 43.056 51.9049 43.184C52.1769 43.312 52.4889 43.376 52.8409 43.376C53.2249 43.376 53.5129 43.288 53.7049 43.112C53.8969 42.936 53.9929 42.72 53.9929 42.464C53.9929 42.312 53.9529 42.18 53.8729 42.068C53.7929 41.956 53.6889 41.86 53.5609 41.78C53.4409 41.692 53.3009 41.616 53.1409 41.552C52.9809 41.488 52.8209 41.424 52.6609 41.36C52.4529 41.288 52.2449 41.208 52.0369 41.12C51.8289 41.024 51.6409 40.912 51.4729 40.784C51.3129 40.648 51.1809 40.492 51.0769 40.316C50.9729 40.14 50.9209 39.928 50.9209 39.68C50.9209 39.448 50.9649 39.232 51.0529 39.032C51.1489 38.824 51.2809 38.648 51.4489 38.504C51.6249 38.352 51.8369 38.236 52.0849 38.156C52.3329 38.068 52.6129 38.024 52.9249 38.024C53.2929 38.024 53.6289 38.088 53.9329 38.216C54.2449 38.344 54.5129 38.5 54.7369 38.684L54.2689 39.308C54.0689 39.156 53.8609 39.032 53.6449 38.936C53.4289 38.84 53.1929 38.792 52.9369 38.792C52.5689 38.792 52.2969 38.876 52.1209 39.044C51.9529 39.212 51.8689 39.408 51.8689 39.632C51.8689 39.768 51.9049 39.888 51.9769 39.992C52.0489 40.088 52.1449 40.176 52.2649 40.256C52.3849 40.328 52.5209 40.396 52.6729 40.46C52.8329 40.516 52.9969 40.576 53.1649 40.64C53.3729 40.72 53.5809 40.804 53.7889 40.892C54.0049 40.98 54.1969 41.092 54.3649 41.228C54.5329 41.356 54.6689 41.516 54.7729 41.708C54.8849 41.9 54.9409 42.132 54.9409 42.404C54.9409 42.644 54.8929 42.868 54.7969 43.076C54.7089 43.284 54.5729 43.468 54.3889 43.628C54.2129 43.788 53.9889 43.912 53.7169 44C53.4529 44.096 53.1489 44.144 52.8049 44.144Z" fill="#732CA4"/>
<path d="M42.3408 10.1046C42.3408 11.2685 41.3976 12.2092 40.2362 12.2092C39.0723 12.2092 38.1316 11.266 38.1316 10.1046C38.1316 8.94067 39.0748 8 40.2362 8C41.3976 8 42.3408 8.94318 42.3408 10.1046Z" fill="#732CA4"/>
<path d="M46.7412 12.22C46.8766 12.1447 48.5121 11.6907 48.2688 13.4266C48.0255 15.1624 44.2126 17.3673 43.9869 17.3974C43.7611 17.4275 43.1089 17.3071 42.5997 16.9685C42.5997 16.9685 40.3145 15.93 39.8956 15.501L37.939 20.3323C37.939 20.3323 41.3079 21.0071 41.7418 24.3433L41.6666 29.2624C41.6666 29.2624 42.7302 29.1922 43.2971 30.6747C43.8665 32.1572 41.5913 32.0819 41.0369 31.7985C40.4826 31.515 40.2593 31.6931 38.7919 30.4966L38.8822 24.3584C38.8822 24.3584 38.0118 23.0866 35.7466 22.9361C35.7466 22.9361 36.1129 26.4304 33.1955 26.5683C30.2757 26.7088 28.7957 26.5683 28.7957 26.5683L28.0331 27.4112C28.0331 27.4112 27.7497 29.2624 26.6259 29.2047C25.5021 29.147 25.8934 28.3243 25.8934 28.3243L25.9085 26.3927C25.9085 26.3927 25.8031 24.7898 28.4972 24.3408C31.1888 23.8943 33.5392 25.1536 33.5994 21.7697C33.6596 18.3858 34.3469 16.1708 35.7466 13.9859C35.7466 13.9859 33.8527 13.8354 32.581 14.1816C31.3092 14.5278 31.4421 15.4684 30.4713 18.5965L30.0223 17.9819L29.1695 17.8615L28.8108 17.1943L27.8525 16.7377C27.8525 16.7377 30.1051 13.8129 30.3233 13.3689C30.4438 13.1205 30.7473 12.664 31.3493 12.3203C31.5349 12.215 32.0216 11.9942 32.9597 11.8713C34.4673 11.6731 36.6321 11.5879 36.7625 11.5879C36.9733 11.5879 39.5469 11.8713 42.3464 14.2368C43.1942 14.9793 43.9091 15.1072 44.5162 14.5654C44.8874 14.2368 45.1583 13.8956 45.4518 13.5921C46.2069 12.8145 46.6082 12.2927 46.7412 12.22Z" fill="#732CA4"/>
<path d="M30.4536 19.3616L26.9067 17.3022L24.8472 20.8491L28.3942 22.9086L30.4536 19.3616Z" fill="#732CA4"/>
<path d="M26.3628 16.9861L25.7407 16.6248L23.7114 20.1191L24.3335 20.4803L26.3628 16.9861Z" fill="#732CA4"/>
<path d="M31.6172 20.039L30.9951 19.6777L28.9658 23.172L29.5879 23.5332L31.6172 20.039Z" fill="#732CA4"/>
</svg>
