<svg width="72" height="56" viewBox="0 0 72 56" fill="none" xmlns="http://www.w3.org/2000/svg">
<path d="M5.14055 44V36.128H6.17255L9.01655 41.072L9.86855 42.704H9.91655C9.89255 42.304 9.86455 41.892 9.83255 41.468C9.80855 41.036 9.79655 40.612 9.79655 40.196V36.128H10.7445V44H9.71255L6.85655 39.044L6.00455 37.424H5.95655C5.98855 37.824 6.01655 38.232 6.04055 38.648C6.07255 39.056 6.08855 39.468 6.08855 39.884V44H5.14055ZM15.0821 44.144C14.7221 44.144 14.3781 44.076 14.0501 43.94C13.7301 43.804 13.4461 43.608 13.1981 43.352C12.9501 43.088 12.7501 42.768 12.5981 42.392C12.4541 42.008 12.3821 41.576 12.3821 41.096C12.3821 40.608 12.4541 40.176 12.5981 39.8C12.7501 39.416 12.9501 39.092 13.1981 38.828C13.4461 38.564 13.7301 38.364 14.0501 38.228C14.3781 38.092 14.7221 38.024 15.0821 38.024C15.4421 38.024 15.7821 38.092 16.1021 38.228C16.4301 38.364 16.7181 38.564 16.9661 38.828C17.2141 39.092 17.4101 39.416 17.5541 39.8C17.7061 40.176 17.7821 40.608 17.7821 41.096C17.7821 41.576 17.7061 42.008 17.5541 42.392C17.4101 42.768 17.2141 43.088 16.9661 43.352C16.7181 43.608 16.4301 43.804 16.1021 43.94C15.7821 44.076 15.4421 44.144 15.0821 44.144ZM15.0821 43.328C15.3301 43.328 15.5581 43.276 15.7661 43.172C15.9741 43.06 16.1501 42.908 16.2941 42.716C16.4461 42.516 16.5621 42.28 16.6421 42.008C16.7221 41.736 16.7621 41.432 16.7621 41.096C16.7621 40.76 16.7221 40.456 16.6421 40.184C16.5621 39.904 16.4461 39.664 16.2941 39.464C16.1501 39.264 15.9741 39.112 15.7661 39.008C15.5581 38.896 15.3301 38.84 15.0821 38.84C14.8341 38.84 14.6061 38.896 14.3981 39.008C14.1901 39.112 14.0101 39.264 13.8581 39.464C13.7141 39.664 13.6021 39.904 13.5221 40.184C13.4421 40.456 13.4021 40.76 13.4021 41.096C13.4021 41.432 13.4421 41.736 13.5221 42.008C13.6021 42.28 13.7141 42.516 13.8581 42.716C14.0101 42.908 14.1901 43.06 14.3981 43.172C14.6061 43.276 14.8341 43.328 15.0821 43.328ZM20.9548 44.144C20.6428 44.144 20.3788 44.096 20.1628 44C19.9548 43.904 19.7828 43.772 19.6468 43.604C19.5188 43.436 19.4268 43.232 19.3708 42.992C19.3148 42.752 19.2868 42.488 19.2868 42.2V38.972H18.4228V38.228L19.3348 38.168L19.4548 36.536H20.2828V38.168H21.8548V38.972H20.2828V42.212C20.2828 42.572 20.3468 42.852 20.4748 43.052C20.6108 43.244 20.8468 43.34 21.1828 43.34C21.2868 43.34 21.3988 43.324 21.5188 43.292C21.6388 43.26 21.7468 43.224 21.8428 43.184L22.0348 43.928C21.8748 43.984 21.6988 44.032 21.5068 44.072C21.3228 44.12 21.1388 44.144 20.9548 44.144ZM23.1735 44V38.168H24.1575V44H23.1735ZM23.6775 36.968C23.4855 36.968 23.3215 36.908 23.1855 36.788C23.0575 36.668 22.9935 36.516 22.9935 36.332C22.9935 36.14 23.0575 35.988 23.1855 35.876C23.3215 35.756 23.4855 35.696 23.6775 35.696C23.8695 35.696 24.0295 35.756 24.1575 35.876C24.2935 35.988 24.3615 36.14 24.3615 36.332C24.3615 36.516 24.2935 36.668 24.1575 36.788C24.0295 36.908 23.8695 36.968 23.6775 36.968ZM26.2946 44V38.972H25.5026V38.228L26.2946 38.168V37.244C26.2946 36.644 26.4306 36.172 26.7026 35.828C26.9826 35.484 27.4146 35.312 27.9986 35.312C28.1826 35.312 28.3546 35.332 28.5146 35.372C28.6826 35.404 28.8346 35.448 28.9706 35.504L28.7546 36.26C28.5386 36.164 28.3186 36.116 28.0946 36.116C27.5506 36.116 27.2786 36.492 27.2786 37.244V38.168H28.5146V38.972H27.2786V44H26.2946ZM29.6305 44V38.168H30.6145V44H29.6305ZM30.1345 36.968C29.9425 36.968 29.7785 36.908 29.6425 36.788C29.5145 36.668 29.4505 36.516 29.4505 36.332C29.4505 36.14 29.5145 35.988 29.6425 35.876C29.7785 35.756 29.9425 35.696 30.1345 35.696C30.3265 35.696 30.4865 35.756 30.6145 35.876C30.7505 35.988 30.8185 36.14 30.8185 36.332C30.8185 36.516 30.7505 36.668 30.6145 36.788C30.4865 36.908 30.3265 36.968 30.1345 36.968ZM34.8876 44.144C34.5036 44.144 34.1436 44.076 33.8076 43.94C33.4716 43.804 33.1796 43.608 32.9316 43.352C32.6916 43.088 32.4996 42.768 32.3556 42.392C32.2196 42.008 32.1516 41.576 32.1516 41.096C32.1516 40.608 32.2276 40.176 32.3796 39.8C32.5316 39.416 32.7356 39.092 32.9916 38.828C33.2476 38.564 33.5436 38.364 33.8796 38.228C34.2236 38.092 34.5836 38.024 34.9596 38.024C35.3436 38.024 35.6716 38.092 35.9436 38.228C36.2156 38.364 36.4556 38.524 36.6636 38.708L36.1596 39.356C35.9916 39.204 35.8116 39.08 35.6196 38.984C35.4356 38.888 35.2276 38.84 34.9956 38.84C34.7316 38.84 34.4876 38.896 34.2636 39.008C34.0396 39.112 33.8476 39.264 33.6876 39.464C33.5276 39.664 33.3996 39.904 33.3036 40.184C33.2156 40.456 33.1716 40.76 33.1716 41.096C33.1716 41.432 33.2156 41.736 33.3036 42.008C33.3916 42.28 33.5116 42.516 33.6636 42.716C33.8236 42.908 34.0156 43.06 34.2396 43.172C34.4636 43.276 34.7076 43.328 34.9716 43.328C35.2436 43.328 35.4916 43.272 35.7156 43.16C35.9476 43.04 36.1556 42.9 36.3396 42.74L36.7716 43.4C36.5076 43.632 36.2156 43.816 35.8956 43.952C35.5756 44.08 35.2396 44.144 34.8876 44.144ZM39.2831 44.144C38.7951 44.144 38.3871 44 38.0591 43.712C37.7391 43.424 37.5791 43.016 37.5791 42.488C37.5791 41.848 37.8631 41.36 38.4311 41.024C38.9991 40.68 39.9071 40.44 41.1551 40.304C41.1551 40.12 41.1351 39.94 41.0951 39.764C41.0631 39.588 41.0031 39.432 40.9151 39.296C40.8271 39.16 40.7031 39.052 40.5431 38.972C40.3911 38.884 40.1951 38.84 39.9551 38.84C39.6191 38.84 39.3031 38.904 39.0071 39.032C38.7111 39.16 38.4471 39.304 38.2151 39.464L37.8311 38.78C38.1031 38.604 38.4351 38.436 38.8271 38.276C39.2191 38.108 39.6511 38.024 40.1231 38.024C40.8351 38.024 41.3511 38.244 41.6711 38.684C41.9911 39.116 42.1511 39.696 42.1511 40.424V44H41.3351L41.2511 43.304H41.2151C40.9351 43.536 40.6351 43.736 40.3151 43.904C39.9951 44.064 39.6511 44.144 39.2831 44.144ZM39.5711 43.352C39.8511 43.352 40.1151 43.288 40.3631 43.16C40.6111 43.024 40.8751 42.828 41.1551 42.572V40.952C40.6671 41.016 40.2551 41.092 39.9191 41.18C39.5911 41.268 39.3231 41.372 39.1151 41.492C38.9151 41.612 38.7671 41.752 38.6711 41.912C38.5831 42.064 38.5391 42.232 38.5391 42.416C38.5391 42.752 38.6391 42.992 38.8391 43.136C39.0391 43.28 39.2831 43.352 39.5711 43.352ZM45.6579 44.144C45.3459 44.144 45.0819 44.096 44.8659 44C44.6579 43.904 44.4859 43.772 44.3499 43.604C44.2219 43.436 44.1299 43.232 44.0739 42.992C44.0179 42.752 43.9899 42.488 43.9899 42.2V38.972H43.1259V38.228L44.0379 38.168L44.1579 36.536H44.9859V38.168H46.5579V38.972H44.9859V42.212C44.9859 42.572 45.0499 42.852 45.1779 43.052C45.3139 43.244 45.5499 43.34 45.8859 43.34C45.9899 43.34 46.1019 43.324 46.2219 43.292C46.3419 43.26 46.4499 43.224 46.5459 43.184L46.7379 43.928C46.5779 43.984 46.4019 44.032 46.2099 44.072C46.0259 44.12 45.8419 44.144 45.6579 44.144ZM47.8766 44V38.168H48.8606V44H47.8766ZM48.3806 36.968C48.1886 36.968 48.0246 36.908 47.8886 36.788C47.7606 36.668 47.6966 36.516 47.6966 36.332C47.6966 36.14 47.7606 35.988 47.8886 35.876C48.0246 35.756 48.1886 35.696 48.3806 35.696C48.5726 35.696 48.7326 35.756 48.8606 35.876C48.9966 35.988 49.0646 36.14 49.0646 36.332C49.0646 36.516 48.9966 36.668 48.8606 36.788C48.7326 36.908 48.5726 36.968 48.3806 36.968ZM53.0977 44.144C52.7377 44.144 52.3937 44.076 52.0657 43.94C51.7457 43.804 51.4617 43.608 51.2137 43.352C50.9657 43.088 50.7657 42.768 50.6137 42.392C50.4697 42.008 50.3977 41.576 50.3977 41.096C50.3977 40.608 50.4697 40.176 50.6137 39.8C50.7657 39.416 50.9657 39.092 51.2137 38.828C51.4617 38.564 51.7457 38.364 52.0657 38.228C52.3937 38.092 52.7377 38.024 53.0977 38.024C53.4577 38.024 53.7977 38.092 54.1177 38.228C54.4457 38.364 54.7337 38.564 54.9817 38.828C55.2297 39.092 55.4257 39.416 55.5697 39.8C55.7217 40.176 55.7977 40.608 55.7977 41.096C55.7977 41.576 55.7217 42.008 55.5697 42.392C55.4257 42.768 55.2297 43.088 54.9817 43.352C54.7337 43.608 54.4457 43.804 54.1177 43.94C53.7977 44.076 53.4577 44.144 53.0977 44.144ZM53.0977 43.328C53.3457 43.328 53.5737 43.276 53.7817 43.172C53.9897 43.06 54.1657 42.908 54.3097 42.716C54.4617 42.516 54.5777 42.28 54.6577 42.008C54.7377 41.736 54.7777 41.432 54.7777 41.096C54.7777 40.76 54.7377 40.456 54.6577 40.184C54.5777 39.904 54.4617 39.664 54.3097 39.464C54.1657 39.264 53.9897 39.112 53.7817 39.008C53.5737 38.896 53.3457 38.84 53.0977 38.84C52.8497 38.84 52.6217 38.896 52.4137 39.008C52.2057 39.112 52.0257 39.264 51.8737 39.464C51.7297 39.664 51.6177 39.904 51.5377 40.184C51.4577 40.456 51.4177 40.76 51.4177 41.096C51.4177 41.432 51.4577 41.736 51.5377 42.008C51.6177 42.28 51.7297 42.516 51.8737 42.716C52.0257 42.908 52.2057 43.06 52.4137 43.172C52.6217 43.276 52.8497 43.328 53.0977 43.328ZM57.3336 44V38.168H58.1496L58.2336 39.008H58.2696C58.5496 38.728 58.8416 38.496 59.1456 38.312C59.4576 38.12 59.8176 38.024 60.2256 38.024C60.8416 38.024 61.2896 38.216 61.5696 38.6C61.8576 38.984 62.0016 39.552 62.0016 40.304V44H61.0176V40.436C61.0176 39.884 60.9296 39.488 60.7536 39.248C60.5776 39 60.2976 38.876 59.9136 38.876C59.6096 38.876 59.3416 38.952 59.1096 39.104C58.8776 39.256 58.6136 39.48 58.3176 39.776V44H57.3336ZM65.4201 44.144C65.0041 44.144 64.6081 44.068 64.2321 43.916C63.8561 43.764 63.5281 43.572 63.2481 43.34L63.7401 42.68C63.9961 42.888 64.2561 43.056 64.5201 43.184C64.7921 43.312 65.1041 43.376 65.4561 43.376C65.8401 43.376 66.1281 43.288 66.3201 43.112C66.5121 42.936 66.6081 42.72 66.6081 42.464C66.6081 42.312 66.5681 42.18 66.4881 42.068C66.4081 41.956 66.3041 41.86 66.1761 41.78C66.0561 41.692 65.9161 41.616 65.7561 41.552C65.5961 41.488 65.4361 41.424 65.2761 41.36C65.0681 41.288 64.8601 41.208 64.6521 41.12C64.4441 41.024 64.2561 40.912 64.0881 40.784C63.9281 40.648 63.7961 40.492 63.6921 40.316C63.5881 40.14 63.5361 39.928 63.5361 39.68C63.5361 39.448 63.5801 39.232 63.6681 39.032C63.7641 38.824 63.8961 38.648 64.0641 38.504C64.2401 38.352 64.4521 38.236 64.7001 38.156C64.9481 38.068 65.2281 38.024 65.5401 38.024C65.9081 38.024 66.2441 38.088 66.5481 38.216C66.8601 38.344 67.1281 38.5 67.3521 38.684L66.8841 39.308C66.6841 39.156 66.4761 39.032 66.2601 38.936C66.0441 38.84 65.8081 38.792 65.5521 38.792C65.1841 38.792 64.9121 38.876 64.7361 39.044C64.5681 39.212 64.4841 39.408 64.4841 39.632C64.4841 39.768 64.5201 39.888 64.5921 39.992C64.6641 40.088 64.7601 40.176 64.8801 40.256C65.0001 40.328 65.1361 40.396 65.2881 40.46C65.4481 40.516 65.6121 40.576 65.7801 40.64C65.9881 40.72 66.1961 40.804 66.4041 40.892C66.6201 40.98 66.8121 41.092 66.9801 41.228C67.1481 41.356 67.2841 41.516 67.3881 41.708C67.5001 41.9 67.5561 42.132 67.5561 42.404C67.5561 42.644 67.5081 42.868 67.4121 43.076C67.3241 43.284 67.1881 43.468 67.0041 43.628C66.8281 43.788 66.6041 43.912 66.3321 44C66.0681 44.096 65.7641 44.144 65.4201 44.144Z" fill="#732CA4"/>
<path d="M45.1637 26.0639L44.9565 25.881C44.3685 25.3572 43.8539 24.7565 43.4266 24.0952C42.9598 23.1824 42.6801 22.1857 42.6037 21.1634V18.1523C42.6077 16.5466 42.0253 14.9947 40.9658 13.7882C39.9063 12.5816 38.4426 11.8035 36.8498 11.6V10.8137C36.8498 10.5979 36.7641 10.3909 36.6115 10.2383C36.4589 10.0857 36.2519 10 36.0361 10C35.8203 10 35.6134 10.0857 35.4608 10.2383C35.3082 10.3909 35.2224 10.5979 35.2224 10.8137V11.6122C33.6439 11.8303 32.198 12.6132 31.1524 13.8157C30.1068 15.0182 29.5324 16.5588 29.5356 18.1523V21.1634C29.4593 22.1857 29.1795 23.1824 28.7128 24.0952C28.2927 24.7549 27.7864 25.3555 27.2072 25.881L27 26.0639V27.7827H45.1637V26.0639Z" fill="#732CA4"/>
<path d="M34.4785 28.4227C34.532 28.8091 34.7234 29.1631 35.0175 29.4193C35.3116 29.6755 35.6885 29.8166 36.0785 29.8166C36.4685 29.8166 36.8454 29.6755 37.1395 29.4193C37.4336 29.1631 37.625 28.8091 37.6785 28.4227H34.4785Z" fill="#732CA4"/>
</svg>
