<svg width="72" height="56" viewBox="0 0 72 56" fill="none" xmlns="http://www.w3.org/2000/svg">
<path d="M21.9628 44V36.128H22.9588V39.428H26.6188V36.128H27.6268V44H26.6188V40.292H22.9588V44H21.9628ZM31.9629 44.144C31.6029 44.144 31.2589 44.076 30.9309 43.94C30.6109 43.804 30.3269 43.608 30.0789 43.352C29.8309 43.088 29.6309 42.768 29.4789 42.392C29.3349 42.008 29.2629 41.576 29.2629 41.096C29.2629 40.608 29.3349 40.176 29.4789 39.8C29.6309 39.416 29.8309 39.092 30.0789 38.828C30.3269 38.564 30.6109 38.364 30.9309 38.228C31.2589 38.092 31.6029 38.024 31.9629 38.024C32.3229 38.024 32.6629 38.092 32.9829 38.228C33.3109 38.364 33.5989 38.564 33.8469 38.828C34.0949 39.092 34.2909 39.416 34.4349 39.8C34.5869 40.176 34.6629 40.608 34.6629 41.096C34.6629 41.576 34.5869 42.008 34.4349 42.392C34.2909 42.768 34.0949 43.088 33.8469 43.352C33.5989 43.608 33.3109 43.804 32.9829 43.94C32.6629 44.076 32.3229 44.144 31.9629 44.144ZM31.9629 43.328C32.2109 43.328 32.4389 43.276 32.6469 43.172C32.8549 43.06 33.0309 42.908 33.1749 42.716C33.3269 42.516 33.4429 42.28 33.5229 42.008C33.6029 41.736 33.6429 41.432 33.6429 41.096C33.6429 40.76 33.6029 40.456 33.5229 40.184C33.4429 39.904 33.3269 39.664 33.1749 39.464C33.0309 39.264 32.8549 39.112 32.6469 39.008C32.4389 38.896 32.2109 38.84 31.9629 38.84C31.7149 38.84 31.4869 38.896 31.2789 39.008C31.0709 39.112 30.8909 39.264 30.7389 39.464C30.5949 39.664 30.4829 39.904 30.4029 40.184C30.3229 40.456 30.2829 40.76 30.2829 41.096C30.2829 41.432 30.3229 41.736 30.4029 42.008C30.4829 42.28 30.5949 42.516 30.7389 42.716C30.8909 42.908 31.0709 43.06 31.2789 43.172C31.4869 43.276 31.7149 43.328 31.9629 43.328ZM36.1988 44V38.168H37.0148L37.0988 39.008H37.1348C37.3908 38.728 37.6668 38.496 37.9628 38.312C38.2668 38.12 38.5948 38.024 38.9468 38.024C39.3948 38.024 39.7428 38.124 39.9908 38.324C40.2468 38.516 40.4348 38.788 40.5548 39.14C40.8588 38.804 41.1628 38.536 41.4668 38.336C41.7788 38.128 42.1148 38.024 42.4748 38.024C43.0748 38.024 43.5188 38.216 43.8068 38.6C44.1028 38.984 44.2508 39.552 44.2508 40.304V44H43.2668V40.436C43.2668 39.884 43.1788 39.488 43.0028 39.248C42.8268 39 42.5548 38.876 42.1868 38.876C41.7468 38.876 41.2588 39.176 40.7228 39.776V44H39.7388V40.436C39.7388 39.884 39.6508 39.488 39.4748 39.248C39.2988 39 39.0228 38.876 38.6468 38.876C38.2068 38.876 37.7188 39.176 37.1828 39.776V44H36.1988ZM48.5121 44.144C48.1201 44.144 47.7521 44.076 47.4081 43.94C47.0721 43.796 46.7761 43.596 46.5201 43.34C46.2721 43.076 46.0761 42.756 45.9321 42.38C45.7881 42.004 45.7161 41.576 45.7161 41.096C45.7161 40.616 45.7881 40.188 45.9321 39.812C46.0841 39.428 46.2801 39.104 46.5201 38.84C46.7681 38.576 47.0481 38.376 47.3601 38.24C47.6721 38.096 47.9961 38.024 48.3321 38.024C48.7001 38.024 49.0281 38.088 49.3161 38.216C49.6121 38.344 49.8561 38.528 50.0481 38.768C50.2481 39.008 50.4001 39.296 50.5041 39.632C50.6081 39.968 50.6601 40.344 50.6601 40.76C50.6601 40.864 50.6561 40.968 50.6481 41.072C50.6481 41.168 50.6401 41.252 50.6241 41.324H46.6881C46.7281 41.948 46.9201 42.444 47.2641 42.812C47.6161 43.172 48.0721 43.352 48.6321 43.352C48.9121 43.352 49.1681 43.312 49.4001 43.232C49.6401 43.144 49.8681 43.032 50.0841 42.896L50.4321 43.544C50.1761 43.704 49.8921 43.844 49.5801 43.964C49.2681 44.084 48.9121 44.144 48.5121 44.144ZM46.6761 40.616H49.7961C49.7961 40.024 49.6681 39.576 49.4121 39.272C49.1641 38.96 48.8121 38.804 48.3561 38.804C48.1481 38.804 47.9481 38.844 47.7561 38.924C47.5721 39.004 47.4041 39.124 47.2521 39.284C47.1001 39.436 46.9721 39.624 46.8681 39.848C46.7721 40.072 46.7081 40.328 46.6761 40.616Z" fill="#732CA4"/>
<path d="M45.8649 18.6217L36.7046 10.2748C36.3025 9.90838 35.6962 9.90842 35.2943 10.2748L26.1339 18.6217C25.8118 18.9152 25.7054 19.3674 25.8628 19.7737C26.0201 20.18 26.4034 20.4425 26.8391 20.4425H28.3022V28.8055C28.3022 29.137 28.571 29.4059 28.9026 29.4059H33.9236C34.2552 29.4059 34.524 29.1371 34.524 28.8055V23.7278H37.475V28.8055C37.475 29.1371 37.7438 29.4059 38.0754 29.4059H43.0962C43.4277 29.4059 43.6966 29.1371 43.6966 28.8055V20.4425H45.1599C45.5956 20.4425 45.9789 20.18 46.1363 19.7737C46.2934 19.3674 46.187 18.9152 45.8649 18.6217Z" fill="#732CA4"/>
<path d="M43.5381 11.1986H39.5059L44.1386 15.411V11.799C44.1386 11.4674 43.8697 11.1986 43.5381 11.1986Z" fill="#732CA4"/>
</svg>
