<svg width="24" height="24" viewBox="0 0 24 24" fill="none" xmlns="http://www.w3.org/2000/svg">
<path d="M13.2611 6.28712C13.0671 6.15001 12.8045 6.1726 12.6367 6.34088L6.00306 12.9936C5.85226 13.1448 5.80773 13.3699 5.88962 13.567C5.97146 13.7642 6.16229 13.8916 6.3758 13.8916H8.29688L5.93171 18.887C5.83027 19.1011 5.89731 19.3556 6.09099 19.4921C6.28374 19.6282 6.54629 19.6066 6.71448 19.4386L11.2908 14.8622C11.428 14.7249 11.428 14.5025 11.2908 14.3653C11.1536 14.2281 10.9312 14.2281 10.7939 14.3653L7.10218 18.0571L9.03915 13.9661C9.1194 13.7965 9.1074 13.6006 9.00704 13.4421C8.90673 13.2836 8.73479 13.189 8.54715 13.189H6.80063L12.2359 7.73799L10.2925 11.7984C10.2113 11.968 10.2226 12.1644 10.3229 12.3235C10.4231 12.4827 10.5953 12.5777 10.7834 12.5777H12.5814L11.887 13.2721C11.7498 13.4093 11.7498 13.6317 11.887 13.769C12.0243 13.9061 12.2467 13.9061 12.384 13.769L13.3793 12.7736C13.5304 12.6225 13.5752 12.3973 13.4934 12.1999C13.4116 12.0025 13.2207 11.8749 13.0071 11.8749H11.0349L13.4191 6.89368C13.5217 6.67937 13.4552 6.42427 13.2611 6.28712V6.28712Z" fill="#00A735"/>
<path d="M23.9999 5.73893C23.9999 4.49937 23.5178 3.33345 22.6423 2.4559C22.5052 2.31851 22.2828 2.31827 22.1454 2.45529C22.008 2.59235 22.0077 2.81482 22.1448 2.95217C22.8879 3.69706 23.2972 4.68673 23.2972 5.73888C23.2972 7.91445 21.5272 9.68435 19.3518 9.68435C17.1762 9.68435 15.4063 7.9144 15.4063 5.73888C15.4063 3.56337 17.1763 1.79346 19.3518 1.79346C19.8846 1.79346 20.4012 1.89771 20.8874 2.10331C21.0661 2.17882 21.2722 2.09529 21.3478 1.9166C21.4234 1.73787 21.3398 1.53171 21.1611 1.45615C20.5878 1.21367 19.9791 1.09076 19.3517 1.09076C17.2562 1.09076 15.4805 2.48468 14.9022 4.3939C13.5427 3.60574 12.0022 3.1489 10.4216 3.06987C5.89945 2.84365 1.79948 5.7004 0.451261 10.0169C0.393418 10.2021 0.496683 10.3992 0.681886 10.457C0.710949 10.4661 0.740293 10.4712 0.769308 10.4727C0.925496 10.4805 1.07325 10.3826 1.122 10.2265C2.37473 6.21579 6.1844 3.56154 10.3866 3.77173C11.9317 3.84902 13.4354 4.31496 14.745 5.11873C14.7179 5.3217 14.7036 5.52865 14.7036 5.73893C14.7036 8.10401 16.4791 10.0622 18.7673 10.3505C19.0652 11.3508 19.19 12.391 19.1373 13.4439C18.8833 18.5231 14.5443 22.4487 9.46504 22.1947C4.38581 21.9406 0.460308 17.6016 0.714371 12.5224C0.726418 12.2818 0.747933 12.0394 0.778308 11.802C0.802964 11.6095 0.666886 11.4335 0.474371 11.4089C0.281668 11.3839 0.105933 11.5203 0.081277 11.7128C0.0486051 11.9681 0.0254957 12.2287 0.0125582 12.4873C-0.260864 17.9536 3.96379 22.6231 9.42998 22.8965C14.8962 23.17 19.5658 18.9453 19.8392 13.4791C19.8917 12.4282 19.7798 11.3888 19.5074 10.3843C21.9986 10.3018 23.9999 8.24984 23.9999 5.73893V5.73893Z" fill="#00A735"/>
<path d="M19.3525 3.151C19.1584 3.151 19.0011 3.30827 19.0011 3.50238V4.25327C18.3281 4.41245 17.8257 5.01784 17.8257 5.73878C17.8257 6.58066 18.5106 7.26559 19.3525 7.26559C20.0734 7.26559 20.6789 6.76314 20.8381 6.09016H22.0921C22.2862 6.09016 22.4435 5.93289 22.4435 5.73878C22.4435 5.54467 22.2862 5.38741 22.0921 5.38741H20.8381C20.7056 4.8273 20.264 4.38574 19.7039 4.25327V3.50238C19.7039 3.30831 19.5466 3.151 19.3525 3.151V3.151ZM20.1766 5.73878C20.1766 6.19319 19.8069 6.56289 19.3525 6.56289C18.8981 6.56289 18.5284 6.19319 18.5284 5.73878C18.5284 5.28438 18.8981 4.91472 19.3525 4.91472C19.8069 4.91472 20.1766 5.28438 20.1766 5.73878Z" fill="#00A735"/>
</svg>
