<svg width="16" height="16" viewBox="0 0 16 16" fill="none" xmlns="http://www.w3.org/2000/svg">
<g clip-path="url(#clip0_816_4656)">
<path d="M15.0378 6.87695C14.9724 6.86632 14.9061 6.86142 14.8398 6.86228H3.55213L3.79826 6.7478C4.03885 6.63393 4.25772 6.47895 4.44507 6.28988L7.61042 3.12453C8.0273 2.72658 8.09735 2.08639 7.77641 1.60769C7.40289 1.09757 6.68657 0.986814 6.17642 1.36034C6.13521 1.39053 6.09604 1.42345 6.05922 1.45886L0.335267 7.18282C-0.112061 7.62965 -0.112454 8.35448 0.334372 8.80181C0.334659 8.80209 0.334981 8.80242 0.335267 8.8027L6.05922 14.5267C6.50691 14.9731 7.23174 14.9721 7.67821 14.5244C7.71334 14.4892 7.74615 14.4517 7.77641 14.4122C8.09735 13.9335 8.0273 13.2933 7.61042 12.8953L4.45079 9.72426C4.28283 9.55612 4.08972 9.41513 3.8784 9.30641L3.53496 9.15186H14.7768C15.3616 9.17358 15.8747 8.76507 15.9846 8.19024C16.0858 7.56615 15.6619 6.97819 15.0378 6.87695Z" fill="#62526D" fill-opacity="0.8"/>
</g>
<defs>
<clipPath id="clip0_816_4656">
<rect width="16" height="16" fill="white"/>
</clipPath>
</defs>
</svg>
