<svg width="16" height="16" viewBox="0 0 16 16" fill="none" xmlns="http://www.w3.org/2000/svg">
<path d="M14.6315 6.11934C14.5896 5.99592 14.5125 5.88747 14.4096 5.80738C14.3068 5.72729 14.1828 5.67908 14.0528 5.66868L10.2522 5.36668L8.60751 1.72601C8.55514 1.60875 8.46994 1.50916 8.36221 1.43925C8.25448 1.36934 8.12882 1.3321 8.0004 1.33203C7.87197 1.33196 7.74627 1.36906 7.63846 1.43885C7.53066 1.50864 7.44535 1.60814 7.39285 1.72534L5.74818 5.36668L1.94751 5.66868C1.81982 5.67879 1.69774 5.72548 1.59588 5.80316C1.49403 5.88084 1.41671 5.98622 1.37318 6.1067C1.32964 6.22717 1.32174 6.35763 1.35041 6.48248C1.37908 6.60733 1.44311 6.72127 1.53485 6.81068L4.34351 9.54868L3.35018 13.85C3.32002 13.9802 3.32969 14.1165 3.37793 14.2411C3.42617 14.3657 3.51076 14.473 3.62072 14.549C3.73067 14.6249 3.86093 14.6661 3.99457 14.6671C4.12821 14.6681 4.25908 14.629 4.37018 14.5547L8.00018 12.1347L11.6302 14.5547C11.7437 14.6301 11.8777 14.6689 12.0139 14.6659C12.1502 14.6629 12.2823 14.6183 12.3924 14.538C12.5026 14.4577 12.5855 14.3456 12.63 14.2167C12.6746 14.0879 12.6786 13.9485 12.6415 13.8173L11.4222 9.55068L14.4462 6.82934C14.6442 6.65068 14.7168 6.37201 14.6315 6.11934V6.11934Z" fill="#732CA4" fill-opacity="0.8"/>
</svg>
