<svg width="40" height="40" viewBox="0 0 40 40" fill="none" xmlns="http://www.w3.org/2000/svg">
<path d="M25.8442 27.3743L28.8593 24.3592C29.2654 23.9582 29.7792 23.6836 30.3383 23.5689C30.8974 23.4542 31.4778 23.5043 32.0089 23.7131L35.6835 25.1803C36.2203 25.3982 36.6806 25.7701 37.0064 26.2491C37.3321 26.7282 37.5088 27.293 37.5141 27.8723V34.6023C37.511 34.9964 37.4281 35.3858 37.2706 35.747C37.113 36.1082 36.884 36.4338 36.5972 36.7042C36.3105 36.9746 35.972 37.1841 35.6022 37.3202C35.2324 37.4564 34.8388 37.5162 34.4452 37.4962C8.6961 35.8945 3.50051 14.0892 2.51793 5.74393C2.47231 5.33412 2.51399 4.9193 2.64021 4.52675C2.76643 4.1342 2.97433 3.77283 3.25024 3.4664C3.52616 3.15997 3.86382 2.91544 4.24103 2.74888C4.61823 2.58233 5.02643 2.49752 5.43876 2.50006H11.94C12.5201 2.50177 13.0865 2.67701 13.5662 3.00323C14.046 3.32945 14.4171 3.79174 14.632 4.33062L16.0991 8.00522C16.3148 8.5343 16.3699 9.1152 16.2574 9.67537C16.1448 10.2355 15.8698 10.7501 15.4665 11.1549L12.4515 14.1699C12.4515 14.1699 14.1878 25.9206 25.8442 27.3743Z" fill="#732CA4"/>
</svg>
