<svg width="16" height="16" viewBox="0 0 16 16" fill="none" xmlns="http://www.w3.org/2000/svg">
<circle cx="8" cy="8" r="8" fill="#732CA4" fill-opacity="0.8"/>
<path d="M6.92699 11.0146C6.85851 11.0144 6.79081 11.0001 6.7281 10.9726C6.66538 10.9451 6.60899 10.905 6.56243 10.8548L4.13537 8.27297C4.04464 8.17628 3.99604 8.04751 4.00025 7.91499C4.00447 7.78247 4.06115 7.65705 4.15784 7.56632C4.25453 7.4756 4.3833 7.42699 4.51582 7.43121C4.64834 7.43542 4.77376 7.49211 4.86448 7.58879L6.922 9.78114L11.1219 5.1867C11.1645 5.13363 11.2176 5.08983 11.2777 5.05799C11.3379 5.02615 11.4039 5.00695 11.4718 5.00157C11.5396 4.99618 11.6079 5.00472 11.6723 5.02667C11.7367 5.04862 11.796 5.08351 11.8465 5.12919C11.8969 5.17488 11.9375 5.2304 11.9657 5.29235C11.994 5.35429 12.0092 5.42135 12.0106 5.4894C12.012 5.55746 11.9994 5.62508 11.9737 5.6881C11.9479 5.75112 11.9096 5.80822 11.861 5.85589L7.29654 10.8498C7.25042 10.901 7.19422 10.942 7.13149 10.9704C7.06875 10.9987 7.00083 11.0138 6.93198 11.0146H6.92699Z" fill="white"/>
</svg>
