<svg width="24" height="24" viewBox="0 0 24 24" fill="none" xmlns="http://www.w3.org/2000/svg">
<path d="M21.8999 18.7533L21.6732 18.5533C21.0302 17.9804 20.4673 17.3233 19.9999 16.6C19.4894 15.6017 19.1834 14.5114 19.0999 13.3933V10.1C19.1043 8.3437 18.4672 6.64627 17.3084 5.3266C16.1495 4.00694 14.5486 3.15586 12.8065 2.93329V2.07329C12.8065 1.83725 12.7128 1.61087 12.5459 1.44396C12.379 1.27706 12.1526 1.18329 11.9165 1.18329C11.6805 1.18329 11.4541 1.27706 11.2872 1.44396C11.1203 1.61087 11.0265 1.83725 11.0265 2.07329V2.94662C9.30004 3.18524 7.71852 4.04146 6.57489 5.35669C5.43126 6.67193 4.80302 8.35705 4.80654 10.1V13.3933C4.72304 14.5114 4.41705 15.6017 3.90654 16.6C3.44712 17.3215 2.89333 17.9784 2.25987 18.5533L2.0332 18.7533V20.6333H21.8999V18.7533Z" fill="#732CA4"/>
<path d="M10.2134 21.3334C10.2718 21.756 10.4812 22.1431 10.8029 22.4233C11.1246 22.7036 11.5368 22.8579 11.9634 22.8579C12.39 22.8579 12.8022 22.7036 13.1239 22.4233C13.4455 22.1431 13.6549 21.756 13.7134 21.3334H10.2134Z" fill="#732CA4"/>
</svg>
