<svg width="32" height="32" viewBox="0 0 32 32" fill="none" xmlns="http://www.w3.org/2000/svg">
<path d="M29.5527 10.4134H3.45071C2.34182 10.4134 1.44287 9.51441 1.44287 8.40552V29.4879C1.44287 30.5968 2.34182 31.4957 3.45071 31.4957H29.5527C30.1072 31.4957 30.5566 31.0463 30.5566 30.4918V22.9624H23.5291C22.4203 22.9624 21.5213 22.0634 21.5213 20.9545V18.9467C21.5213 17.8378 22.4203 16.9389 23.5291 16.9389H30.5566V11.4173C30.5566 10.8628 30.1072 10.4134 29.5527 10.4134Z" fill="#54455E" fill-opacity="0.7"/>
<path d="M3.45071 10.4134H9.07267C8.67487 9.63668 8.46838 8.77625 8.47032 7.90359C8.46819 7.3941 8.53922 6.88699 8.68115 6.39771H3.45071C2.34182 6.39771 1.44287 7.29666 1.44287 8.40555C1.44287 9.51445 2.34182 10.4134 3.45071 10.4134Z" fill="#54455E"/>
<path d="M18.9111 10.4135H26.5409V7.40169C26.5393 6.8479 26.0908 6.3994 25.537 6.39777H19.3027C19.4446 6.88705 19.5156 7.39416 19.5135 7.90365C19.5154 8.77631 19.3089 9.63674 18.9111 10.4135Z" fill="#54455E"/>
<path d="M21.522 18.9472V20.955C21.522 22.0639 22.4209 22.9629 23.5298 22.9629H30.5573V16.9393H23.5298C22.4209 16.9393 21.522 17.8383 21.522 18.9472ZM24.5337 18.9472C25.0882 18.9472 25.5377 19.3966 25.5377 19.9511C25.5377 20.5056 25.0882 20.955 24.5337 20.955C23.9793 20.955 23.5298 20.5056 23.5298 19.9511C23.5298 19.3966 23.9793 18.9472 24.5337 18.9472Z" fill="#54455E"/>
<path d="M24.5337 20.9549C25.0882 20.9549 25.5376 20.5054 25.5376 19.9509C25.5376 19.3965 25.0882 18.947 24.5337 18.947C23.9793 18.947 23.5298 19.3965 23.5298 19.9509C23.5298 20.5054 23.9793 20.9549 24.5337 20.9549Z" fill="#54455E"/>
<path d="M8.18688 10.4133H12.6705C12.3762 10.089 12.2135 9.66659 12.2145 9.22866C12.2135 9.66659 12.3762 10.089 12.6705 10.4133H15.3122C15.6065 10.089 15.7692 9.66659 15.7682 9.22866C15.7682 8.24731 14.9727 7.45178 13.9914 7.45178C13.01 7.45178 12.2145 6.65626 12.2145 5.6749C12.2145 4.69355 13.01 3.89802 13.9914 3.89802C14.9727 3.89802 15.7682 4.69355 15.7682 5.6749C15.7682 4.69355 14.9727 3.89802 13.9914 3.89802C13.01 3.89802 12.2145 4.69355 12.2145 5.6749C12.2145 6.65626 13.01 7.45178 13.9914 7.45178C14.9727 7.45178 15.7682 8.24731 15.7682 9.22866C15.7692 9.66659 15.6065 10.089 15.3122 10.4133H19.7958C20.2652 9.49675 20.5089 8.48149 20.5066 7.45178C20.5091 6.85061 20.4253 6.25224 20.2578 5.6749C19.273 2.21406 15.6691 0.206774 12.2082 1.19161C10.0383 1.80908 8.34228 3.50504 7.72489 5.6749C7.55742 6.25224 7.47361 6.85061 7.47613 7.45178C7.47383 8.48149 7.71749 9.49675 8.18688 10.4133Z" fill="#FCC62D"/>
<path d="M23.0273 19.9503C23.0273 20.782 23.7015 21.4562 24.5332 21.4562C25.3649 21.4562 26.0391 20.782 26.0391 19.9503C26.0391 19.1186 25.3649 18.4444 24.5332 18.4444C23.7015 18.4444 23.0273 19.1186 23.0273 19.9503ZM24.5332 19.4483C24.8104 19.4483 25.0352 19.6731 25.0352 19.9503C25.0352 20.2275 24.8104 20.4522 24.5332 20.4522C24.256 20.4522 24.0313 20.2275 24.0313 19.9503C24.0313 19.6731 24.256 19.4483 24.5332 19.4483Z" fill="white"/>
<path d="M19.7643 4.70587L13.9563 8.0865L13.6327 6.65303L11.4272 7.54847L10.6328 7.87L8.47021 8.55614L11.4272 6.98225L15.24 4.92621L15.5421 6.35199L16.5605 5.95615L17.266 5.67945L19.7643 4.70587Z" fill="#F7B044"/>
</svg>
