<svg width="80" height="80" viewBox="0 0 80 80" fill="none" xmlns="http://www.w3.org/2000/svg">
<g clip-path="url(#clip0_816_4797)">
<path d="M47.9029 52.8517C46.0164 54.7419 43.503 55.7819 40.8327 55.7819C38.1631 55.7819 35.6497 54.7419 33.7631 52.8517L19.5964 38.6855C17.7067 36.7984 16.6667 34.2856 16.6667 31.6153C16.6667 28.945 17.7067 26.4323 19.5964 24.5457C21.4829 22.6554 23.9963 21.6154 26.6666 21.6154C29.3362 21.6154 31.8496 22.6554 33.7362 24.5457L40.8327 31.6385L60.423 12.0489C54.0229 6.59237 45.7362 3.28247 36.6665 3.28247C16.4165 3.28247 0 19.6989 0 39.9484C0 60.1984 16.4165 76.6148 36.6665 76.6148C56.9159 76.6148 73.3324 60.1984 73.3324 39.9484C73.3324 36.1587 72.7562 32.5052 71.6893 29.0653L47.9029 52.8517Z" fill="#F8A220"/>
<path d="M40.8339 49.1149C39.9807 49.1149 39.1274 48.7884 38.4774 48.1384L24.3113 33.9717C23.0076 32.6686 23.0076 30.5617 24.3113 29.2586C25.6144 27.9549 27.7207 27.9549 29.0244 29.2586L40.8339 41.0682L74.3107 7.59194C75.6138 6.28885 77.7201 6.28885 79.0238 7.59194C80.3269 8.89564 80.3269 11.0019 79.0238 12.3056L43.1905 48.1384C42.5411 48.7884 41.6872 49.1149 40.8339 49.1149V49.1149Z" fill="#732CA4"/>
</g>
<defs>
<clipPath id="clip0_816_4797">
<rect width="80" height="80" fill="white"/>
</clipPath>
</defs>
</svg>
