<svg width="24" height="24" viewBox="0 0 24 24" fill="none" xmlns="http://www.w3.org/2000/svg">
<path d="M2.49998 4.00049H21.5C22.8807 4.00049 24 5.11977 24 6.50047V17.5005C24 18.8812 22.8807 20.0005 21.5 20.0005H2.49998C1.11928 20.0005 0 18.8812 0 17.5005V6.50052C0 5.11977 1.11928 4.00049 2.49998 4.00049Z" fill="#2C55A4" fill-opacity="0.8"/>
<path d="M24 7.00049H0V11.0005H24V7.00049Z" fill="#DADADA"/>
<path d="M7.5 14.9995H3.50002C3.22388 14.9995 3 14.7757 3 14.4995C3 14.2234 3.22388 13.9995 3.50002 13.9995H7.5C7.77614 13.9995 8.00002 14.2234 8.00002 14.4995C8.00002 14.7757 7.77614 14.9995 7.5 14.9995Z" fill="#FAFAFA"/>
<path d="M10.5 16.9998H3.50002C3.22388 16.9998 3 16.7759 3 16.4998C3 16.2236 3.22388 15.9998 3.50002 15.9998H10.5C10.7761 15.9998 11 16.2236 11 16.4998C11 16.7759 10.7761 16.9998 10.5 16.9998Z" fill="#FAFAFA"/>
</svg>
