<svg width="32" height="32" viewBox="0 0 32 32" fill="none" xmlns="http://www.w3.org/2000/svg">
<path d="M3.33331 5.33331H28.6666C30.5076 5.33331 31.9999 6.82569 31.9999 8.66663V23.3333C31.9999 25.1743 30.5076 26.6666 28.6666 26.6666H3.33331C1.49238 26.6667 0 25.1743 0 23.3333V8.66669C0 6.82569 1.49238 5.33331 3.33331 5.33331Z" fill="#54455E" fill-opacity="0.7"/>
<path d="M32 9.33331H0V14.6666H32V9.33331Z" fill="#54455E"/>
<path d="M10 20H4.66669C4.2985 20 4 19.7015 4 19.3333C4 18.9651 4.2985 18.6666 4.66669 18.6666H10C10.3682 18.6666 10.6667 18.9651 10.6667 19.3333C10.6667 19.7015 10.3682 20 10 20Z" fill="#FAFAFA"/>
<path d="M14 22.6667H4.66669C4.2985 22.6667 4 22.3682 4 22.0001C4 21.6319 4.2985 21.3334 4.66669 21.3334H14C14.3682 21.3334 14.6667 21.6319 14.6667 22.0001C14.6667 22.3682 14.3682 22.6667 14 22.6667Z" fill="#FAFAFA"/>
</svg>
