<svg width="24" height="24" viewBox="0 0 24 24" fill="none" xmlns="http://www.w3.org/2000/svg">
<path d="M22.8002 17.4V6.59999C22.8002 5.60399 21.9962 4.79999 21.0002 4.79999H4.18818C3.19218 4.79999 2.38818 5.60399 2.38818 6.59999V17.4C2.38818 18.396 3.19218 19.2 4.18818 19.2H21.0002C21.9962 19.2 22.8002 18.396 22.8002 17.4ZM21.2282 6.46799C21.6242 6.86399 21.4082 7.27199 21.1922 7.47599L16.3202 11.94L21.0002 16.812C21.1442 16.98 21.2402 17.244 21.0722 17.424C20.9162 17.616 20.5562 17.604 20.4002 17.484L15.1562 13.008L12.5882 15.348L10.0322 13.008L4.78818 17.484C4.63218 17.604 4.27218 17.616 4.11618 17.424C3.94818 17.244 4.04418 16.98 4.18818 16.812L8.86818 11.94L3.99618 7.47599C3.78018 7.27199 3.56418 6.86399 3.96018 6.46799C4.35618 6.07199 4.76418 6.26399 5.10018 6.55199L12.5882 12.6L20.0882 6.55199C20.4242 6.26399 20.8322 6.07199 21.2282 6.46799V6.46799Z" fill="#62526D" fill-opacity="0.8"/>
</svg>
