<svg width="80" height="80" viewBox="0 0 80 80" fill="none" xmlns="http://www.w3.org/2000/svg">
<g clip-path="url(#clip0_816_4866)">
<path d="M71.7151 40.2863V41.9936C71.7151 51.5539 55.6605 59.3033 35.8574 59.3033C24.9263 59.3033 15.144 56.9394 8.56689 53.2157C10.7846 61.8285 25.8558 68.9573 44.1323 68.9573C63.9354 68.9573 79.99 60.5886 79.99 51.0284C79.99 46.8248 76.8786 43.1204 71.7151 40.2863Z" fill="#FCC62D"/>
<path d="M44.1341 68.9573C24.331 68.9573 8.27637 60.5887 8.27637 51.0284V62.6795C8.27637 72.2397 24.331 79.9905 44.1341 79.9905C63.9372 79.9905 79.9918 72.2397 79.9918 62.6795V51.0284C79.9918 60.5887 63.9372 68.9573 44.1341 68.9573Z" fill="#E4AF18"/>
<path d="M12.4146 70.8187C13.2282 71.562 14.1509 72.2737 15.1728 72.9494V61.515C14.1509 60.8116 13.2282 60.0738 12.4146 59.3042V70.8187Z" fill="#CE9912"/>
<path d="M73.0981 61.515V72.9494C74.1201 72.275 75.0427 71.562 75.8564 70.8187V59.3042C75.0441 60.0738 74.1215 60.8116 73.0981 61.515Z" fill="#CE9912"/>
<path d="M17.9297 74.5561C18.8013 75.0071 19.7226 75.4333 20.688 75.8374V64.538C19.7226 64.1133 18.8013 63.665 17.9297 63.1934V74.5561Z" fill="#CE9912"/>
<path d="M67.5806 75.8367C68.546 75.434 69.4672 75.0065 70.3389 74.5555V63.1927C69.4672 63.6644 68.546 64.114 67.5806 64.5374V75.8367Z" fill="#CE9912"/>
<path d="M23.4521 76.8804C24.3431 77.1852 25.263 77.4693 26.2104 77.7341V66.5438C25.263 66.2624 24.3431 65.9604 23.4521 65.639V76.8804Z" fill="#CE9912"/>
<path d="M62.063 77.7341C63.0105 77.4693 63.9303 77.1852 64.8213 76.8804V65.639C63.9303 65.9604 63.0105 66.2624 62.063 66.5438V77.7341Z" fill="#CE9912"/>
<path d="M30.3442 78.727C31.2448 78.9091 32.1661 79.0718 33.1025 79.2166V68.1228C32.1661 67.967 31.2448 67.7932 30.3442 67.6001V78.727Z" fill="#CE9912"/>
<path d="M55.1709 79.2162C56.1073 79.07 57.0286 78.9072 57.9292 78.7266V67.5983C57.0286 67.7913 56.1073 67.9651 55.1709 68.1223V79.2162Z" fill="#CE9912"/>
<path d="M38.6182 79.8514C39.5256 79.919 40.4469 79.9659 41.3765 79.999V68.9617C40.4469 68.9258 39.5256 68.8762 38.6182 68.8031V79.8514Z" fill="#CE9912"/>
<path d="M46.8945 80.0004C47.8241 79.9659 48.7453 79.9204 49.6528 79.8528V68.8031C48.7453 68.8762 47.8241 68.9258 46.8945 68.9631V80.0004Z" fill="#CE9912"/>
<path d="M35.8602 48.2603C16.0571 48.2603 0.00244141 39.8916 0.00244141 30.3314V41.9824C0.00244141 51.5427 16.0571 59.2934 35.8602 59.2934C55.6633 59.2934 71.7179 51.5427 71.7179 41.9824V30.3314C71.7179 39.8916 55.6633 48.2603 35.8602 48.2603Z" fill="#E4AF18"/>
<path d="M4.14062 50.1209C4.95432 50.8642 5.87697 51.5759 6.89891 52.2517V40.8172C5.87697 40.1138 4.95432 39.376 4.14062 38.6078V50.1209Z" fill="#CE9912"/>
<path d="M64.8242 40.8173V52.2518C65.8462 51.5774 66.7688 50.8644 67.5825 50.121V38.6066C66.7702 39.3761 65.8475 40.114 64.8242 40.8173Z" fill="#CE9912"/>
<path d="M9.65332 53.8597C10.5249 54.3107 11.4462 54.7368 12.4116 55.1409V43.8416C11.4462 43.4168 10.5249 42.9686 9.65332 42.4969V53.8597Z" fill="#CE9912"/>
<path d="M59.3066 55.1391C60.272 54.7364 61.1933 54.3102 62.0649 53.8579V42.4951C61.1933 42.9668 60.272 43.4164 59.3066 43.8398V55.1391Z" fill="#CE9912"/>
<path d="M15.1758 56.1834C16.0667 56.4882 16.9866 56.7723 17.9341 57.0371V45.8467C16.9866 45.5654 16.0667 45.2634 15.1758 44.942V56.1834Z" fill="#CE9912"/>
<path d="M53.7891 57.0371C54.7365 56.7723 55.6564 56.4882 56.5474 56.1834V44.942C55.6564 45.2634 54.7365 45.5654 53.7891 45.8467V57.0371Z" fill="#CE9912"/>
<path d="M22.0703 58.0306C22.9709 58.2127 23.8922 58.3754 24.8286 58.5202V47.4264C23.8922 47.2705 22.9709 47.0968 22.0703 46.9037V58.0306Z" fill="#CE9912"/>
<path d="M46.8945 58.5216C47.831 58.3754 48.7522 58.2127 49.6528 58.032V46.9037C48.7522 47.0968 47.831 47.2705 46.8945 47.4278V58.5216Z" fill="#CE9912"/>
<path d="M30.3442 59.1556C31.2517 59.2232 32.173 59.2701 33.1025 59.3032V48.2659C32.173 48.23 31.2517 48.1804 30.3442 48.1073V59.1556Z" fill="#CE9912"/>
<path d="M38.6182 59.3033C39.5477 59.2689 40.469 59.2234 41.3765 59.1558V48.1061C40.469 48.1792 39.5477 48.2288 38.6182 48.2661V59.3033Z" fill="#CE9912"/>
<path d="M70.7732 45.9283C67.0812 53.5909 52.8568 59.3033 35.8574 59.3033C29.5079 59.3033 23.5472 58.5034 18.374 57.1063C23.3776 60.5031 32.2827 63.3938 44.1323 63.3938C63.0017 63.3938 74.4735 56.0692 74.4735 51.0284C74.4735 49.3459 73.1784 47.5613 70.7732 45.9283Z" fill="#FFD949"/>
<path d="M42.7559 45.5112C22.9528 45.5112 6.89816 37.7604 6.89816 28.2002V20.4053C2.56627 23.1208 0.00244141 26.5259 0.00244141 30.3406C0.00244141 39.9009 16.0571 48.2695 35.8602 48.2695C45.3956 48.2695 54.0539 46.3263 60.4765 43.2467C55.2482 44.6851 49.2034 45.5112 42.7559 45.5112Z" fill="#FFD949"/>
<path d="M42.7572 34.4694C22.954 34.4694 6.89941 26.1008 6.89941 16.5405V28.1915C6.89941 37.7518 22.954 45.5025 42.7572 45.5025C62.5603 45.5025 78.6149 37.7518 78.6149 28.1915V16.5405C78.6149 26.1008 62.5603 34.4694 42.7572 34.4694Z" fill="#E4AF18"/>
<path d="M11.0303 36.33C11.844 37.0733 12.7666 37.785 13.7886 38.4608V27.0263C12.7666 26.3229 11.844 25.5851 11.0303 24.8169V36.33Z" fill="#CE9912"/>
<path d="M71.7188 27.0252V38.4597C72.7407 37.7853 73.6633 37.0723 74.477 36.3289V24.8145C73.6647 25.584 72.7421 26.3219 71.7188 27.0252Z" fill="#CE9912"/>
<path d="M16.5527 40.0682C17.4244 40.5192 18.3456 40.9453 19.311 41.3494V30.0501C18.3456 29.6253 17.4244 29.1771 16.5527 28.7054V40.0682Z" fill="#CE9912"/>
<path d="M66.2012 41.3476C67.1666 40.9449 68.0878 40.5187 68.9595 40.0664V28.7036C68.0878 29.1753 67.1666 29.6249 66.2012 30.0483V41.3476Z" fill="#CE9912"/>
<path d="M22.0703 42.3919C22.9612 42.6967 23.8811 42.9808 24.8286 43.2456V32.0552C23.8811 31.7739 22.9612 31.4719 22.0703 31.1505V42.3919Z" fill="#CE9912"/>
<path d="M60.686 43.2456C61.6335 42.9808 62.5534 42.6967 63.4443 42.3919V31.1505C62.5534 31.4719 61.6335 31.7739 60.686 32.0552V43.2456Z" fill="#CE9912"/>
<path d="M28.9648 44.2391C29.8654 44.4212 30.7867 44.5839 31.7231 44.7287V33.6349C30.7867 33.479 29.8654 33.3053 28.9648 33.1122V44.2391Z" fill="#CE9912"/>
<path d="M53.7891 44.7301C54.7255 44.5839 55.6468 44.4212 56.5474 44.2405V33.1122C55.6468 33.3053 54.7255 33.479 53.7891 33.6363V44.7301Z" fill="#CE9912"/>
<path d="M37.2412 45.3641C38.1487 45.4317 39.07 45.4786 39.9995 45.5117V34.4744C39.07 34.4385 38.1487 34.3889 37.2412 34.3158V45.3641Z" fill="#CE9912"/>
<path d="M45.5127 45.5118C46.4422 45.4774 47.3635 45.4319 48.271 45.3643V34.3146C47.3635 34.3877 46.4422 34.4373 45.5127 34.4746V45.5118Z" fill="#CE9912"/>
<path d="M78.6149 16.5497C78.6149 26.11 62.5603 34.4786 42.7572 34.4786C22.954 34.4786 6.89941 26.11 6.89941 16.5497C6.89941 6.9895 22.954 0 42.7572 0C62.5603 0 78.6149 6.9895 78.6149 16.5497Z" fill="#FCC62D"/>
<path d="M42.7557 28.9153C23.8863 28.9153 12.4146 21.592 12.4146 16.5499C12.4146 11.5091 23.8863 4.13757 42.7557 4.13757C61.6252 4.13757 73.0969 11.5091 73.0969 16.5499C73.0969 21.592 61.6252 28.9153 42.7557 28.9153Z" fill="#FFD949"/>
<path d="M69.9966 6.88965L41.1983 23.6519L39.5937 16.5443L28.6584 20.9842L24.7193 22.5785L13.9966 25.9806L28.6584 18.1767L47.5633 7.98215L49.0613 15.0517L54.1107 13.089L57.6088 11.717L69.9966 6.88965Z" fill="#F7B044"/>
<path d="M10.5246 16.5486C10.5246 18.5141 11.6174 20.3679 13.1532 21.9321C14.7223 23.5301 16.9504 25.0355 19.7039 26.3321C25.2219 28.9304 33.0899 30.8041 42.7557 30.8041C52.4216 30.8041 60.2895 28.9304 65.8075 26.3321C68.5611 25.0355 70.7891 23.5301 72.3582 21.9321C73.894 20.3679 74.9869 18.5141 74.9869 16.5486C74.9869 14.5846 73.895 12.7285 72.3602 11.1606C70.7919 9.55831 68.5644 8.04673 65.8107 6.74379C60.2924 4.13279 52.4234 2.24635 42.7557 2.24635C33.0881 2.24635 25.2191 4.13279 19.7008 6.74379C16.947 8.04673 14.7196 9.55831 13.1512 11.1606C11.6165 12.7285 10.5246 14.5846 10.5246 16.5486Z" stroke="#FCC62D" stroke-width="3.78"/>
</g>
<defs>
<clipPath id="clip0_816_4866">
<rect width="80" height="80" fill="white"/>
</clipPath>
</defs>
</svg>
