<svg width="40" height="40" viewBox="0 0 40 40" fill="none" xmlns="http://www.w3.org/2000/svg">
<g clip-path="url(#clip0_816_4734)">
<path d="M35.8603 20.1429V20.9966C35.8603 25.7767 27.8329 29.6515 17.9314 29.6515C12.4658 29.6515 7.5747 28.4695 4.28613 26.6077C5.39496 30.9141 12.9306 34.4785 22.0688 34.4785C31.9704 34.4785 39.9977 30.2941 39.9977 25.514C39.9977 23.4122 38.442 21.56 35.8603 20.1429Z" fill="#FCC62D"/>
<path d="M22.0685 34.4785C12.167 34.4785 4.13965 30.2942 4.13965 25.514V31.3395C4.13965 36.1197 12.167 39.995 22.0685 39.995C31.9701 39.995 39.9974 36.1197 39.9974 31.3395V25.514C39.9974 30.2942 31.9701 34.4785 22.0685 34.4785Z" fill="#E4AF18"/>
<path d="M6.20898 35.4088C6.61583 35.7805 7.07716 36.1363 7.58813 36.4742V30.757C7.07716 30.4053 6.61583 30.0364 6.20898 29.6516V35.4088Z" fill="#CE9912"/>
<path d="M36.5508 30.757V36.4742C37.0618 36.137 37.5231 35.7805 37.9299 35.4088V29.6516C37.5238 30.0364 37.0624 30.4053 36.5508 30.757Z" fill="#CE9912"/>
<path d="M8.9668 37.2782C9.40261 37.5037 9.86324 37.7168 10.3459 37.9188V32.2691C9.86324 32.0567 9.40261 31.8326 8.9668 31.5968V37.2782Z" fill="#CE9912"/>
<path d="M33.792 37.9182C34.2747 37.7168 34.7353 37.5031 35.1711 37.2776V31.5962C34.7353 31.832 34.2747 32.0568 33.792 32.2685V37.9182Z" fill="#CE9912"/>
<path d="M11.7266 38.4402C12.172 38.5926 12.632 38.7347 13.1057 38.8671V33.2719C12.632 33.1312 12.172 32.9802 11.7266 32.8195V38.4402Z" fill="#CE9912"/>
<path d="M31.0332 38.8671C31.5069 38.7347 31.9669 38.5926 32.4123 38.4402V32.8195C31.9669 32.9802 31.5069 33.1312 31.0332 33.2719V38.8671Z" fill="#CE9912"/>
<path d="M15.1729 39.3636C15.6231 39.4547 16.0838 39.536 16.552 39.6084V34.0615C16.0838 33.9836 15.6231 33.8967 15.1729 33.8002V39.3636Z" fill="#CE9912"/>
<path d="M27.5859 39.6083C28.0542 39.5352 28.5148 39.4538 28.9651 39.3635V33.7993C28.5148 33.8959 28.0542 33.9827 27.5859 34.0614V39.6083Z" fill="#CE9912"/>
<path d="M19.3105 39.9255C19.7643 39.9593 20.2249 39.9828 20.6897 39.9993V34.4807C20.2249 34.4627 19.7643 34.4379 19.3105 34.4014V39.9255Z" fill="#CE9912"/>
<path d="M23.4478 40C23.9125 39.9828 24.3732 39.96 24.8269 39.9262V34.4014C24.3732 34.4379 23.9125 34.4627 23.4478 34.4814V40Z" fill="#CE9912"/>
<path d="M17.9318 24.1301C8.03024 24.1301 0.00292969 19.9458 0.00292969 15.1657V20.9912C0.00292969 25.7713 8.03024 29.6467 17.9318 29.6467C27.8334 29.6467 35.8607 25.7713 35.8607 20.9912V15.1657C35.8607 19.9458 27.8334 24.1301 17.9318 24.1301Z" fill="#E4AF18"/>
<path d="M2.07227 25.0604C2.47911 25.4321 2.94044 25.7879 3.45141 26.1258V20.4086C2.94044 20.0569 2.47911 19.688 2.07227 19.3039V25.0604Z" fill="#CE9912"/>
<path d="M32.4126 20.4085V26.1257C32.9236 25.7885 33.3849 25.432 33.7917 25.0603V19.3031C33.3856 19.6879 32.9243 20.0568 32.4126 20.4085Z" fill="#CE9912"/>
<path d="M4.82959 26.9297C5.2654 27.1552 5.72603 27.3682 6.20873 27.5703V21.9206C5.72603 21.7082 5.2654 21.4841 4.82959 21.2483V26.9297Z" fill="#CE9912"/>
<path d="M29.6553 27.5697C30.138 27.3683 30.5986 27.1552 31.0344 26.9291V21.2477C30.5986 21.4835 30.138 21.7083 29.6553 21.92V27.5697Z" fill="#CE9912"/>
<path d="M7.58838 28.0917C8.03384 28.2441 8.49379 28.3862 8.96752 28.5186V22.9234C8.49379 22.7827 8.03384 22.6317 7.58838 22.471V28.0917Z" fill="#CE9912"/>
<path d="M26.8965 28.5186C27.3702 28.3862 27.8302 28.2441 28.2756 28.0917V22.471C27.8302 22.6317 27.3702 22.7827 26.8965 22.9234V28.5186Z" fill="#CE9912"/>
<path d="M11.0356 29.0151C11.4859 29.1062 11.9466 29.1875 12.4148 29.2599V23.713C11.9466 23.6351 11.4859 23.5482 11.0356 23.4517V29.0151Z" fill="#CE9912"/>
<path d="M23.4478 29.2606C23.916 29.1875 24.3766 29.1062 24.8269 29.0158V23.4517C24.3766 23.5482 23.916 23.6351 23.4478 23.7137V29.2606Z" fill="#CE9912"/>
<path d="M15.1729 29.5778C15.6266 29.6116 16.0872 29.635 16.552 29.6516V24.133C16.0872 24.115 15.6266 24.0902 15.1729 24.0536V29.5778Z" fill="#CE9912"/>
<path d="M19.3105 29.6517C19.7753 29.6344 20.236 29.6117 20.6897 29.5779V24.053C20.236 24.0896 19.7753 24.1144 19.3105 24.133V29.6517Z" fill="#CE9912"/>
<path d="M35.3895 22.9642C33.5436 26.7954 26.4313 29.6516 17.9316 29.6516C14.7569 29.6516 11.7765 29.2517 9.18994 28.5532C11.6917 30.2516 16.1443 31.6969 22.0691 31.6969C31.5038 31.6969 37.2397 28.0346 37.2397 25.5142C37.2397 24.6729 36.5922 23.7806 35.3895 22.9642Z" fill="#FFD949"/>
<path d="M21.3797 22.7557C11.4781 22.7557 3.45079 18.8803 3.45079 14.1002V10.2028C1.28484 11.5605 0.00292969 13.2631 0.00292969 15.1704C0.00292969 19.9505 8.03024 24.1349 17.9318 24.1349C22.6995 24.1349 27.0286 23.1633 30.24 21.6235C27.6258 22.3427 24.6034 22.7557 21.3797 22.7557Z" fill="#FFD949"/>
<path d="M21.38 17.2344C11.4785 17.2344 3.45117 13.0501 3.45117 8.26996V14.0955C3.45117 18.8756 11.4785 22.751 21.38 22.751C31.2816 22.751 39.3089 18.8756 39.3089 14.0955V8.26996C39.3089 13.0501 31.2816 17.2344 21.38 17.2344Z" fill="#E4AF18"/>
<path d="M5.51953 18.1647C5.92638 18.5364 6.3877 18.8922 6.89868 19.2301V13.5128C6.3877 13.1612 5.92638 12.7922 5.51953 12.4081V18.1647Z" fill="#CE9912"/>
<path d="M35.8613 13.5127V19.23C36.3723 18.8928 36.8336 18.5363 37.2405 18.1646V12.4073C36.8343 12.7921 36.373 13.1611 35.8613 13.5127Z" fill="#CE9912"/>
<path d="M8.27832 20.0341C8.71413 20.2596 9.17476 20.4727 9.65746 20.6747V15.0251C9.17476 14.8127 8.71413 14.5886 8.27832 14.3527V20.0341Z" fill="#CE9912"/>
<path d="M33.1025 20.6739C33.5852 20.4726 34.0459 20.2595 34.4817 20.0333V14.3519C34.0459 14.5878 33.5852 14.8126 33.1025 15.0243V20.6739Z" fill="#CE9912"/>
<path d="M11.0356 21.196C11.4811 21.3484 11.9411 21.4904 12.4148 21.6228V16.0276C11.9411 15.8869 11.4811 15.7359 11.0356 15.5753V21.196Z" fill="#CE9912"/>
<path d="M30.3447 21.6228C30.8185 21.4904 31.2784 21.3484 31.7239 21.196V15.5753C31.2784 15.7359 30.8185 15.8869 30.3447 16.0276V21.6228Z" fill="#CE9912"/>
<path d="M14.4844 22.1194C14.9347 22.2104 15.3953 22.2918 15.8635 22.3642V16.8173C15.3953 16.7393 14.9347 16.6524 14.4844 16.5559V22.1194Z" fill="#CE9912"/>
<path d="M26.8965 22.3649C27.3647 22.2918 27.8253 22.2104 28.2756 22.1201V16.5559C27.8253 16.6524 27.3647 16.7393 26.8965 16.8179V22.3649Z" fill="#CE9912"/>
<path d="M18.6211 22.6821C19.0748 22.7158 19.5355 22.7393 20.0002 22.7558V17.2372C19.5355 17.2193 19.0748 17.1944 18.6211 17.1579V22.6821Z" fill="#CE9912"/>
<path d="M22.7593 22.7559C23.224 22.7387 23.6847 22.7159 24.1384 22.6821V17.1573C23.6847 17.1938 23.224 17.2187 22.7593 17.2373V22.7559Z" fill="#CE9912"/>
<path d="M39.3089 8.27486C39.3089 13.055 31.2816 17.2393 21.38 17.2393C11.4785 17.2393 3.45117 13.055 3.45117 8.27486C3.45117 3.49475 11.4785 0 21.38 0C31.2816 0 39.3089 3.49475 39.3089 8.27486Z" fill="#FCC62D"/>
<path d="M21.3796 14.4575C11.9448 14.4575 6.20898 10.7958 6.20898 8.27475C6.20898 5.75437 11.9448 2.0686 21.3796 2.0686C30.8143 2.0686 36.5501 5.75437 36.5501 8.27475C36.5501 10.7958 30.8143 14.4575 21.3796 14.4575Z" fill="#FFD949"/>
<path d="M35.001 3.44482L20.6018 11.826L19.7996 8.27215L14.3319 10.4921L12.3623 11.2892L7.00098 12.9903L14.3319 9.08836L23.7843 3.99107L24.5334 7.52583L27.0581 6.54448L28.8071 5.85849L35.001 3.44482Z" fill="#F7B044"/>
<path d="M5.26301 8.27475C5.26301 9.25746 5.80944 10.1844 6.57735 10.9665C7.36191 11.7655 8.47592 12.5182 9.8527 13.1665C12.6117 14.4656 16.5457 15.4025 21.3786 15.4025C26.2115 15.4025 30.1455 14.4656 32.9045 13.1665C34.2813 12.5182 35.3953 11.7655 36.1798 10.9665C36.9477 10.1844 37.4942 9.25746 37.4942 8.27475C37.4942 7.29271 36.9482 6.36468 36.1809 5.58072C35.3967 4.77958 34.2829 4.02379 32.9061 3.37232C30.1469 2.06682 26.2124 1.1236 21.3786 1.1236C16.5448 1.1236 12.6103 2.06682 9.85111 3.37232C8.47424 4.02379 7.36051 4.77958 6.57633 5.58072C5.80897 6.36468 5.26301 7.29271 5.26301 8.27475Z" stroke="#FCC62D" stroke-width="1.89"/>
</g>
<defs>
<clipPath id="clip0_816_4734">
<rect width="40" height="40" fill="white"/>
</clipPath>
</defs>
</svg>
