<svg width="24" height="24" viewBox="0 0 24 24" fill="none" xmlns="http://www.w3.org/2000/svg">
<path d="M21.8649 10.6217L12.7046 2.27481C12.3025 1.90838 11.6962 1.90842 11.2943 2.27477L2.13388 10.6217C1.81179 10.9152 1.7054 11.3674 1.86276 11.7737C2.02015 12.18 2.40336 12.4425 2.83909 12.4425H4.30216V20.8055C4.30216 21.137 4.57101 21.4059 4.90258 21.4059H9.9236C10.2552 21.4059 10.524 21.1371 10.524 20.8055V15.7278H13.475V20.8055C13.475 21.1371 13.7438 21.4059 14.0754 21.4059H19.0962C19.4277 21.4059 19.6966 21.1371 19.6966 20.8055V12.4425H21.1599C21.5956 12.4425 21.9789 12.18 22.1363 11.7737C22.2934 11.3674 22.187 10.9152 21.8649 10.6217Z" fill="url(#paint0_linear_816_4660)"/>
<path d="M19.5381 3.19861H15.5059L20.1386 7.41101V3.79899C20.1386 3.46742 19.8697 3.19861 19.5381 3.19861Z" fill="url(#paint1_linear_816_4660)"/>
<defs>
<linearGradient id="paint0_linear_816_4660" x1="22.2079" y1="1.99999" x2="1.24099" y2="2.44698" gradientUnits="userSpaceOnUse">
<stop stop-color="#732CA4"/>
<stop offset="1" stop-color="#8C62A9"/>
</linearGradient>
<linearGradient id="paint1_linear_816_4660" x1="20.1386" y1="3.19861" x2="15.3813" y2="3.30462" gradientUnits="userSpaceOnUse">
<stop stop-color="#732CA4"/>
<stop offset="1" stop-color="#8C62A9"/>
</linearGradient>
</defs>
</svg>
