<svg width="32" height="32" viewBox="0 0 32 32" fill="none" xmlns="http://www.w3.org/2000/svg">
<g clip-path="url(#clip0_816_4695)">
<path d="M25.4757 5.47984C23.5337 2.12834 20.0842 0.0807812 16.2482 0.00253125C16.0845 -0.00084375 15.9197 -0.00084375 15.7558 0.00253125C11.92 0.0807812 8.47046 2.12834 6.52834 5.47984C4.54321 8.90559 4.4889 13.0206 6.38303 16.4875L14.3182 31.0117C14.3218 31.0182 14.3253 31.0246 14.329 31.031C14.6782 31.6378 15.3036 32 16.0022 32C16.7007 32 17.3261 31.6377 17.6751 31.031C17.6788 31.0246 17.6824 31.0182 17.686 31.0117L25.6212 16.4875C27.5152 13.0206 27.4608 8.90559 25.4757 5.47984V5.47984ZM16.002 14.5C13.5207 14.5 11.502 12.4813 11.502 10C11.502 7.51872 13.5207 5.50003 16.002 5.50003C18.4833 5.50003 20.502 7.51872 20.502 10C20.502 12.4813 18.4834 14.5 16.002 14.5Z" fill="url(#paint0_linear_816_4695)"/>
</g>
<defs>
<linearGradient id="paint0_linear_816_4695" x1="27.0041" y1="-2.35319e-05" x2="4.40134" y2="0.314915" gradientUnits="userSpaceOnUse">
<stop stop-color="#732CA4"/>
<stop offset="1" stop-color="#8C62A9"/>
</linearGradient>
<clipPath id="clip0_816_4695">
<rect width="32" height="32" fill="white"/>
</clipPath>
</defs>
</svg>
