<svg width="16" height="16" viewBox="0 0 16 16" fill="none" xmlns="http://www.w3.org/2000/svg">
<g clip-path="url(#clip0_816_4686)">
<path d="M12.7369 2.73989C11.7658 1.06414 10.0411 0.0403601 8.12313 0.00123511C8.04125 -0.000452393 7.95885 -0.000452393 7.87694 0.00123511C5.95901 0.0403601 4.23425 1.06414 3.26319 2.73989C2.27063 4.45277 2.24347 6.51027 3.19054 8.24373L7.15813 15.5058C7.15991 15.509 7.16169 15.5123 7.16354 15.5155C7.3381 15.8189 7.65082 16 8.0001 16C8.34935 16 8.66207 15.8188 8.8366 15.5155C8.83844 15.5123 8.84022 15.509 8.842 15.5058L12.8096 8.24373C13.7566 6.51027 13.7294 4.45277 12.7369 2.73989V2.73989ZM8.00004 7.24999C6.75938 7.24999 5.75004 6.24064 5.75004 4.99999C5.75004 3.75933 6.75938 2.74999 8.00004 2.74999C9.24069 2.74999 10.25 3.75933 10.25 4.99999C10.25 6.24064 9.24072 7.24999 8.00004 7.24999Z" fill="#B0A8B6"/>
</g>
<defs>
<clipPath id="clip0_816_4686">
<rect width="16" height="16" fill="white"/>
</clipPath>
</defs>
</svg>
