<svg width="24" height="24" viewBox="0 0 24 24" fill="none" xmlns="http://www.w3.org/2000/svg">
<path d="M13.998 5.99994C13.998 4.89994 13.098 3.99994 11.998 3.99994C10.898 3.99994 9.99805 4.89994 9.99805 5.99994C9.99805 7.09994 10.898 7.99994 11.998 7.99994C13.098 7.99994 13.998 7.09994 13.998 5.99994ZM13.998 17.9999C13.998 16.8999 13.098 15.9999 11.998 15.9999C10.898 15.9999 9.99805 16.8999 9.99805 17.9999C9.99805 19.0999 10.898 19.9999 11.998 19.9999C13.098 19.9999 13.998 19.0999 13.998 17.9999ZM13.998 11.9999C13.998 10.8999 13.098 9.99994 11.998 9.99994C10.898 9.99994 9.99805 10.8999 9.99805 11.9999C9.99805 13.0999 10.898 13.9999 11.998 13.9999C13.098 13.9999 13.998 13.0999 13.998 11.9999Z" fill="#B0A8B6"/>
</svg>
