<svg width="24" height="24" viewBox="0 0 24 24" fill="none" xmlns="http://www.w3.org/2000/svg">
<path d="M20.0417 9.25H18.6667V7.41665C18.6667 3.87848 15.7882 1 12.25 1C8.71178 1 5.83335 3.87848 5.83335 7.41665V9.25H4.45835C4.205 9.25 4 9.455 4 9.70835V21.1667C4 22.1778 4.82221 23 5.83335 23H18.6667C19.6778 23 20.5 22.1778 20.5 21.1667V9.70835C20.5 9.455 20.295 9.25 20.0417 9.25ZM13.6223 18.8244C13.6366 18.9538 13.5951 19.0836 13.5082 19.1807C13.4214 19.2778 13.2969 19.3333 13.1667 19.3333H11.3333C11.2031 19.3333 11.0787 19.2778 10.9918 19.1807C10.905 19.0836 10.8634 18.9538 10.8777 18.8244L11.1668 16.2244C10.6973 15.8829 10.4167 15.3426 10.4167 14.75C10.4167 13.7389 11.2389 12.9167 12.25 12.9167C13.2612 12.9167 14.0834 13.7389 14.0834 14.75C14.0834 15.3426 13.8028 15.8829 13.3332 16.2244L13.6223 18.8244ZM15.9167 9.25H8.58335V7.41665C8.58335 5.39489 10.2282 3.75 12.25 3.75C14.2718 3.75 15.9167 5.39489 15.9167 7.41665V9.25V9.25Z" fill="#44A42C" fill-opacity="0.8"/>
</svg>
