<svg width="16" height="16" viewBox="0 0 16 16" fill="none" xmlns="http://www.w3.org/2000/svg">
<path d="M4.94588 2.94729C4.85732 3.03567 4.78706 3.14064 4.73912 3.25621C4.69118 3.37177 4.6665 3.49566 4.6665 3.62077C4.6665 3.74589 4.69118 3.86977 4.73912 3.98534C4.78706 4.1009 4.85732 4.20588 4.94588 4.29426L8.65244 8.00082L4.94588 11.7074C4.76726 11.886 4.66691 12.1283 4.66691 12.3809C4.66691 12.6335 4.76726 12.8757 4.94588 13.0544C5.1245 13.233 5.36676 13.3333 5.61936 13.3333C5.87197 13.3333 6.11423 13.233 6.29285 13.0544L10.6777 8.66953C10.7662 8.58115 10.8365 8.47618 10.8844 8.36061C10.9324 8.24505 10.957 8.12116 10.957 7.99605C10.957 7.87093 10.9324 7.74705 10.8844 7.63148C10.8365 7.51591 10.7662 7.41094 10.6777 7.32256L6.29285 2.93773C5.92983 2.57472 5.31844 2.57472 4.94588 2.94729Z" fill="#B0A8B6"/>
</svg>
