<svg width="32" height="32" viewBox="0 0 32 32" fill="none" xmlns="http://www.w3.org/2000/svg">
<path d="M23.8503 20.8528L21.9812 22.752C21.9275 22.8148 21.8579 22.8624 21.78 22.8899L17.0782 24.4486H19.9713C20.3016 24.4486 20.5694 24.7164 20.5694 25.0467C20.5694 25.377 20.3016 25.6449 19.9713 25.6449H4.04544C3.71513 25.6449 3.44731 25.377 3.44731 25.0467C3.44731 24.7164 3.71513 24.4486 4.04544 24.4486H16.4853C16.4345 24.4486 16.3871 24.3934 16.3451 24.3513C16.185 24.1939 16.129 23.9585 16.2008 23.7459L16.5612 22.6542H4.04544C3.71513 22.6542 3.44731 22.3864 3.44731 22.0561C3.44731 21.7258 3.71513 21.4579 4.04544 21.4579H16.961L17.8045 18.9235C17.8255 18.8408 17.867 18.7649 17.9254 18.703L23.8503 12.7585V6.55607C23.8503 6.27993 23.6265 6.05607 23.3503 6.05607H18.4605C18.1301 6.05607 17.869 5.82214 17.869 5.49153V0.5C17.869 0.223858 17.6452 0 17.369 0H0.649414C0.373272 0 0.149414 0.223858 0.149414 0.5V31.5C0.149414 31.7761 0.373272 32 0.649414 32H23.3503C23.6265 32 23.8503 31.7761 23.8503 31.5V20.8528ZM4.04544 18.4673H12.4946C12.8249 18.4673 13.0928 18.7351 13.0928 19.0654C13.0928 19.3957 12.8249 19.6636 12.4946 19.6636H4.04544C3.71513 19.6636 3.44731 19.3957 3.44731 19.0654C3.44731 18.7351 3.71513 18.4673 4.04544 18.4673ZM19.9713 28.6355H4.04544C3.71513 28.6355 3.44731 28.3677 3.44731 28.0374C3.44731 27.7071 3.71513 27.4393 4.04544 27.4393H19.9713C20.3016 27.4393 20.5694 27.7071 20.5694 28.0374C20.5694 28.3677 20.3016 28.6355 19.9713 28.6355Z" fill="url(#paint0_linear_816_4698)"/>
<path d="M19.4054 1.22144C19.2792 1.09611 19.0645 1.18549 19.0645 1.36334V4.65974C19.0645 4.7702 19.154 4.85974 19.2645 4.85974H22.5834C22.7619 4.85974 22.851 4.64363 22.7243 4.51784L19.4054 1.22144Z" fill="url(#paint1_linear_816_4698)"/>
<path d="M17.7158 23.0012L20.4842 22.0757L18.6413 20.2328L17.7158 23.0012Z" fill="url(#paint2_linear_816_4698)"/>
<path d="M21.5911 21.4897L29.1641 13.9L26.8177 11.5536L19.228 19.1267L21.5911 21.4897Z" fill="url(#paint3_linear_816_4698)"/>
<path d="M31.4668 11.5907C31.6617 11.3954 31.6616 11.0791 31.4664 10.884L29.8322 9.25002C29.6371 9.05494 29.3209 9.05477 29.1256 9.24965L27.6631 10.7088L30.0077 13.0532L31.4668 11.5907Z" fill="url(#paint4_linear_816_4698)"/>
<defs>
<linearGradient id="paint0_linear_816_4698" x1="23.8503" y1="-2.35319e-05" x2="-0.494657" y2="0.365351" gradientUnits="userSpaceOnUse">
<stop stop-color="#732CA4"/>
<stop offset="1" stop-color="#8C62A9"/>
</linearGradient>
<linearGradient id="paint1_linear_816_4698" x1="23.0685" y1="0.88281" x2="18.9564" y2="0.966704" gradientUnits="userSpaceOnUse">
<stop stop-color="#732CA4"/>
<stop offset="1" stop-color="#8C62A9"/>
</linearGradient>
<linearGradient id="paint2_linear_816_4698" x1="20.4842" y1="20.2328" x2="17.6411" y2="20.2905" gradientUnits="userSpaceOnUse">
<stop stop-color="#732CA4"/>
<stop offset="1" stop-color="#8C62A9"/>
</linearGradient>
<linearGradient id="paint3_linear_816_4698" x1="29.1641" y1="11.5536" x2="18.9599" y2="11.7604" gradientUnits="userSpaceOnUse">
<stop stop-color="#732CA4"/>
<stop offset="1" stop-color="#8C62A9"/>
</linearGradient>
<linearGradient id="paint4_linear_816_4698" x1="31.8196" y1="8.89691" x2="27.5509" y2="8.98341" gradientUnits="userSpaceOnUse">
<stop stop-color="#732CA4"/>
<stop offset="1" stop-color="#8C62A9"/>
</linearGradient>
</defs>
</svg>
