<svg width="24" height="24" viewBox="0 0 24 24" fill="none" xmlns="http://www.w3.org/2000/svg">
<g clip-path="url(#clip0_816_4810)">
<path d="M9.61251 20.874H7.32818C7.24995 20.874 7.17492 20.9051 7.1196 20.9604C7.06428 21.0157 7.0332 21.0908 7.0332 21.169C7.0332 21.2472 7.06428 21.3223 7.1196 21.3776C7.17492 21.4329 7.24995 21.464 7.32818 21.464H9.61251C9.69074 21.464 9.76577 21.4329 9.82108 21.3776C9.8764 21.3223 9.90748 21.2472 9.90748 21.169C9.90748 21.0908 9.8764 21.0157 9.82108 20.9604C9.76577 20.9051 9.69074 20.874 9.61251 20.874V20.874Z" fill="#F39300"/>
<path d="M4.76449 1.06944L4.76455 1.06944L12.1732 1.06944H4.76449ZM4.76449 1.06944C4.01891 1.07033 3.30412 1.36688 2.77689 1.89407C2.24966 2.42125 1.95304 3.13601 1.95209 3.88159V3.88165L1.95209 21.1688L1.95209 21.1689C1.95298 21.9145 2.24957 22.6293 2.7768 23.1565C3.30404 23.6838 4.01887 23.9804 4.76449 23.9813H4.76455H12.1733H12.1734C12.919 23.9804 13.6338 23.6838 14.1611 23.1566C14.6883 22.6293 14.9849 21.9145 14.9858 21.1689V21.1688V11.9925M4.76449 1.06944L14.9858 11.9925M16.6086 0.952091C15.6587 0.951399 14.7248 1.19514 13.8966 1.65963L16.6086 1M16.6086 0.952091L16.6086 1M16.6086 0.952091C16.6086 0.952091 16.6086 0.952091 16.6086 0.952091L16.6086 1M16.6086 0.952091C17.398 0.952119 18.1783 1.12059 18.8973 1.44626C19.6164 1.77194 20.2577 2.24731 20.7783 2.84062C21.299 3.43393 21.6871 4.13152 21.9166 4.88679C22.1461 5.64206 22.2119 6.43762 22.1094 7.22031C22.0069 8.00301 21.7385 8.75482 21.3223 9.42553C20.906 10.0962 20.3514 10.6704 19.6955 11.1096C19.0397 11.5489 18.2976 11.8431 17.5189 11.9727C16.7469 12.1011 15.9565 12.0647 15.1996 11.866M16.6086 1C17.3911 1.00003 18.1647 1.16705 18.8776 1.48991C19.5904 1.81277 20.2262 2.28403 20.7423 2.87222C21.2585 3.46041 21.6432 4.15198 21.8708 4.90072C22.0983 5.64947 22.1635 6.43816 22.0619 7.21409C21.9603 7.99003 21.6942 8.73535 21.2816 9.40026C20.8689 10.0652 20.3191 10.6344 19.6689 11.0698C19.0187 11.5053 18.283 11.797 17.5111 11.9254C16.7391 12.0538 15.9487 12.0161 15.1925 11.8146M15.1996 11.866L15.2169 11.8558L15.1925 11.8146M15.1996 11.866L14.9858 11.9925M15.1996 11.866C15.1931 11.8643 15.1866 11.8626 15.1801 11.8609L15.1925 11.8146M15.1925 11.8146L14.9858 11.9925M12.1734 1.75501L12.1733 1.75501L4.7646 1.75501M12.1734 1.75501H4.7646M12.1734 1.75501C12.563 1.75456 12.9448 1.86162 13.2769 2.06375C12.602 2.56827 12.0511 3.2206 11.6668 3.97095H2.63786V3.88171M12.1734 1.75501L2.63786 3.88171M4.7646 1.75501L4.76455 1.75501M4.7646 1.75501C4.76458 1.75501 4.76456 1.75501 4.76455 1.75501M4.76455 1.75501C4.20072 1.75565 3.66016 1.97991 3.26147 2.37859C2.86277 2.77729 2.6385 3.31786 2.63786 3.88171M4.76455 1.75501L2.63786 3.88171M4.7646 23.2955H12.1733C12.7371 23.2949 13.2777 23.0706 13.6764 22.6719C14.0751 22.2732 14.2994 21.7326 14.3 21.1688C14.3 21.1688 14.3 21.1688 14.3 21.1688M4.7646 23.2955L14.348 21.1688L14.3 21.1688M4.7646 23.2955C4.20075 23.2949 3.66017 23.0706 3.26147 22.6719C2.86277 22.2732 2.6385 21.7327 2.63786 21.1688V19.0421H14.3M4.7646 23.2955L14.3 19.0421M14.3 21.1688L14.3 19.0421M14.3 21.1688L14.3 19.0421M16.6086 11.3613H16.6085C16.1477 11.3618 15.6892 11.2966 15.2469 11.1676C15.2018 11.1544 15.1545 11.1506 15.1079 11.1565C15.0613 11.1623 15.0164 11.1777 14.976 11.2016L14.976 11.2016L12.4989 12.6675L13.4523 10.517L13.4523 10.517C13.4817 10.4508 13.4893 10.3769 13.474 10.3061C13.4588 10.2352 13.4215 10.171 13.3675 10.1227C12.5208 9.36498 11.9663 8.3346 11.8003 7.21057C11.6343 6.08653 11.8673 4.93986 12.4588 3.96974C13.0503 2.99962 13.963 2.26736 15.0382 1.90015C16.1135 1.53294 17.2834 1.55399 18.3447 1.95964C19.4061 2.36529 20.2918 3.12991 20.848 4.12068C21.4042 5.11145 21.5958 6.26576 21.3895 7.3831C21.1832 8.50043 20.592 9.5102 19.7186 10.237C18.8452 10.9638 17.7448 11.3615 16.6086 11.3613ZM5.05915 18.3563C5.17083 17.5421 5.57036 16.794 6.18636 16.2481C6.81586 15.6903 7.62785 15.3823 8.46895 15.3823C9.31006 15.3823 10.122 15.6903 10.7515 16.2481C11.3675 16.794 11.7671 17.5421 11.8788 18.3563H5.05915ZM14.3 18.3563H12.5708C12.4569 17.3567 11.9819 16.4325 11.2341 15.758C10.4756 15.0739 9.49041 14.6952 8.46895 14.6952C7.4475 14.6952 6.46231 15.0739 5.70382 15.758C4.95604 16.4325 4.48096 17.3567 4.3671 18.3563H2.63786V4.65672H11.3724C11.0264 5.64711 10.9673 6.71565 11.2026 7.73895C11.4406 8.77356 11.9695 9.71826 12.7267 10.4617L11.4374 13.3695C11.4374 13.3695 11.4374 13.3695 11.4374 13.3695C11.4078 13.436 11.4002 13.5101 11.4155 13.5811C11.4309 13.6522 11.4684 13.7166 11.5227 13.7649C11.5771 13.8133 11.6454 13.8431 11.7177 13.8501C11.7901 13.8571 11.8628 13.8409 11.9254 13.8038C11.9254 13.8038 11.9254 13.8038 11.9254 13.8038L14.2999 12.3987L14.3 18.3563Z" fill="#F39300" stroke="#F39300" stroke-width="0.0958217"/>
<path d="M10.9749 11.5736V11.5735C10.9741 10.9251 10.7162 10.3034 10.2577 9.84484C9.79915 9.3863 9.17747 9.12837 8.52901 9.12763L8.52895 9.17554L8.52895 9.12763C8.04519 9.12762 7.57228 9.27106 7.17004 9.53982C6.7678 9.80858 6.45429 10.1906 6.26915 10.6375C6.08402 11.0845 6.03557 11.5763 6.12994 12.0507C6.22431 12.5252 6.45726 12.961 6.79933 13.3031C7.14141 13.6452 7.57723 13.8781 8.0517 13.9725C8.52617 14.0669 9.01797 14.0185 9.46492 13.8333C9.91186 13.6482 10.2939 13.3347 10.5626 12.9325C10.8314 12.5302 10.9749 12.0573 10.9749 11.5736ZM8.5289 13.3337C8.18078 13.3337 7.84048 13.2305 7.55103 13.0371C7.26156 12.8437 7.03594 12.5688 6.90272 12.2471C6.76949 11.9255 6.73462 11.5716 6.80254 11.2301C6.87045 10.8887 7.0381 10.5751 7.28427 10.3289C7.53043 10.0827 7.84407 9.91508 8.18552 9.84717C8.52697 9.77925 8.88088 9.81411 9.20252 9.94734C9.52415 10.0806 9.79905 10.3062 9.99246 10.5957C10.1859 10.8851 10.2891 11.2254 10.2891 11.5735C10.2886 12.0402 10.1029 12.4876 9.77295 12.8176C9.44297 13.1476 8.99556 13.3332 8.5289 13.3337Z" fill="#F39300" stroke="#F39300" stroke-width="0.0958217"/>
<path d="M17.6702 7.25163L17.6709 7.25231L17.6702 7.25163ZM17.6702 7.25163C17.7375 7.18428 17.7375 7.07514 17.6702 7.00779V7.25163ZM15.0578 6.31705C14.9767 6.3984 14.9527 6.51961 14.9968 6.62569L18.7741 5.9357C18.7741 5.9357 18.7741 5.9357 18.7741 5.9357C18.7301 5.8295 18.6273 5.7608 18.5124 5.7608H17.5843L18.7371 3.35231C18.7371 3.35231 18.7371 3.35231 18.7371 3.35231C18.7927 3.23615 18.7566 3.09779 18.6515 3.02346L18.6515 3.02346C18.5463 2.94915 18.4039 2.96141 18.3129 3.05261L15.0578 6.31705Z" fill="#F39300" stroke="#F39300" stroke-width="0.05"/>
</g>
<defs>
<clipPath id="clip0_816_4810">
<rect width="24" height="24" fill="white"/>
</clipPath>
</defs>
</svg>
