<svg width="16" height="16" viewBox="0 0 16 16" fill="none" xmlns="http://www.w3.org/2000/svg">
<path d="M8.002 0H7.998C3.587 0 0 3.588 0 8C0 9.75 0.564 11.372 1.523 12.689L0.526 15.661L3.601 14.678C4.866 15.516 6.375 16 8.002 16C12.413 16 16 12.411 16 8C16 3.589 12.413 0 8.002 0Z" fill="#25D366"/>
<path d="M12.6575 11.2969C12.4645 11.8419 11.6985 12.2939 11.0875 12.4259C10.6695 12.5149 10.1235 12.5859 8.28554 11.8239C5.93454 10.8499 4.42054 8.4609 4.30254 8.3059C4.18954 8.1509 3.35254 7.04091 3.35254 5.89291C3.35254 4.74491 3.93554 4.18591 4.17054 3.94591C4.36354 3.74891 4.68254 3.65891 4.98854 3.65891C5.08754 3.65891 5.17654 3.66391 5.25654 3.66791C5.49154 3.67791 5.60954 3.69191 5.76454 4.06291C5.95754 4.52791 6.42754 5.67591 6.48354 5.79391C6.54054 5.91191 6.59754 6.07191 6.51754 6.22691C6.44254 6.38691 6.37654 6.4579 6.25854 6.5939C6.14054 6.7299 6.02854 6.83391 5.91054 6.97991C5.80254 7.10691 5.68054 7.24291 5.81654 7.47791C5.95254 7.70791 6.42254 8.4749 7.11454 9.0909C8.00754 9.8859 8.73154 10.1399 8.99054 10.2479C9.18354 10.3279 9.41354 10.3089 9.55454 10.1589C9.73354 9.96591 9.95454 9.64591 10.1795 9.33091C10.3395 9.10491 10.5415 9.0769 10.7535 9.1569C10.9695 9.2319 12.1125 9.7969 12.3475 9.9139C12.5825 10.0319 12.7375 10.0879 12.7945 10.1869C12.8505 10.2859 12.8505 10.7509 12.6575 11.2969Z" fill="#FAFAFA"/>
</svg>
