<svg width="40" height="40" viewBox="0 0 40 40" fill="none" xmlns="http://www.w3.org/2000/svg">
<path d="M20.005 0H19.995C8.9675 0 0 8.97 0 20C0 24.375 1.41 28.43 3.8075 31.7225L1.315 39.1525L9.0025 36.695C12.165 38.79 15.9375 40 20.005 40C31.0325 40 40 31.0275 40 20C40 8.9725 31.0325 0 20.005 0Z" fill="#25D366"/>
<path d="M31.6438 28.2424C31.1613 29.6049 29.2463 30.7349 27.7188 31.0649C26.6738 31.2874 25.3088 31.4649 20.7138 29.5599C14.8363 27.1249 11.0513 21.1524 10.7563 20.7649C10.4738 20.3774 8.38135 17.6024 8.38135 14.7324C8.38135 11.8624 9.83885 10.4649 10.4263 9.8649C10.9088 9.3724 11.7063 9.1474 12.4713 9.1474C12.7188 9.1474 12.9413 9.1599 13.1413 9.1699C13.7288 9.1949 14.0238 9.2299 14.4113 10.1574C14.8938 11.3199 16.0688 14.1899 16.2088 14.4849C16.3513 14.7799 16.4938 15.1799 16.2938 15.5674C16.1063 15.9674 15.9413 16.1449 15.6463 16.4849C15.3513 16.8249 15.0713 17.0849 14.7763 17.4499C14.5063 17.7674 14.2013 18.1074 14.5413 18.6949C14.8813 19.2699 16.0563 21.1874 17.7863 22.7274C20.0188 24.7149 21.8288 25.3499 22.4763 25.6199C22.9588 25.8199 23.5338 25.7724 23.8863 25.3974C24.3338 24.9149 24.8863 24.1149 25.4488 23.3274C25.8488 22.7624 26.3538 22.6924 26.8838 22.8924C27.4238 23.0799 30.2813 24.4924 30.8688 24.7849C31.4563 25.0799 31.8438 25.2199 31.9863 25.4674C32.1263 25.7149 32.1263 26.8774 31.6438 28.2424Z" fill="#FAFAFA"/>
</svg>
